<?xml version="1.0" standalone="no"?>
<!DOCTYPE svg PUBLIC "-//W3C//DTD SVG 20010904//EN"
 "http://www.w3.org/TR/2001/REC-SVG-20010904/DTD/svg10.dtd">
<svg version="1.0" xmlns="http://www.w3.org/2000/svg"
 width="2550.000000pt" height="2550.000000pt" viewBox="0 0 2550.000000 2550.000000"
 preserveAspectRatio="xMidYMid meet">
<metadata>
Created by potrace 1.11, written by Peter Selinger 2001-2013
</metadata>
<g transform="translate(0.000000,2550.000000) scale(0.100000,-0.100000)"
fill="#000000" stroke="none">
<path d="M3719 23040 c18 -10 5 -30 -19 -30 -10 0 -21 -8 -25 -19 -3 -10 -13
-18 -23 -17 -12 1 -16 -5 -14 -23 3 -20 0 -23 -18 -18 -17 4 -20 1 -18 -16 2
-16 -2 -22 -17 -22 -15 0 -19 -6 -17 -24 3 -16 0 -21 -8 -16 -9 6 -9 2 -1 -14
14 -26 -3 -29 -19 -3 -11 16 -11 16 -6 0 3 -10 1 -18 -5 -18 -6 0 -8 -4 -5 -9
11 -17 -5 -40 -22 -33 -15 5 -16 4 -2 -13 9 -11 10 -16 3 -11 -8 4 -13 1 -13
-9 0 -10 -5 -13 -12 -9 -10 6 -10 4 0 -8 10 -13 10 -17 -3 -22 -9 -3 -13 -2
-10 3 3 5 2 12 -3 15 -4 2 -9 -12 -10 -32 -3 -42 -10 -52 -21 -33 -11 18 -22
0 -23 -39 -1 -22 -6 -29 -17 -28 -10 2 -17 -5 -19 -19 -2 -15 -10 -23 -22 -23
-12 0 -19 -7 -19 -20 -1 -11 -1 -29 -2 -40 0 -14 -6 -20 -17 -18 -11 2 -18 -5
-20 -19 -2 -14 -10 -23 -22 -23 -10 0 -18 -6 -17 -12 1 -40 -5 -57 -23 -63
-12 -4 -19 -14 -18 -23 2 -11 -3 -16 -14 -16 -16 2 -23 -14 -19 -38 0 -5 -8
-8 -19 -8 -11 0 -20 -4 -20 -9 0 -6 10 -8 21 -6 12 3 18 1 15 -3 -4 -4 -12 -8
-17 -8 -5 -1 -13 -2 -19 -3 -5 0 -7 -8 -3 -17 4 -10 -1 -17 -16 -21 -12 -3
-21 -13 -21 -24 0 -17 -11 -24 -32 -20 -5 0 -8 -6 -8 -14 0 -16 20 -16 33 0 5
6 7 4 4 -5 -2 -8 -9 -16 -15 -16 -7 -1 -16 -2 -21 -3 -5 0 -7 -10 -4 -21 3
-12 2 -20 -3 -19 -24 4 -36 -2 -30 -17 4 -11 -1 -18 -14 -21 -11 -3 -21 -9
-21 -14 -7 -45 -20 -70 -33 -60 -9 8 -12 3 -10 -19 2 -23 -2 -28 -18 -25 -16
4 -18 2 -7 -11 6 -8 9 -17 5 -21 -3 -3 -6 -1 -6 5 0 7 -5 12 -12 12 -6 0 -8
-3 -5 -7 4 -3 1 -13 -6 -21 -9 -13 -9 -14 0 -8 9 5 11 2 7 -8 -3 -9 -9 -15
-12 -14 -22 2 -30 -4 -27 -22 3 -15 -2 -20 -17 -20 -17 0 -18 -2 -8 -15 7 -9
10 -18 6 -22 -3 -3 -6 -1 -6 6 0 9 -4 9 -14 -1 -9 -8 -11 -17 -5 -22 13 -14
11 -23 -6 -23 -8 0 -12 4 -9 8 2 4 -1 11 -7 15 -8 4 -9 3 -5 -4 4 -7 3 -12 -2
-12 -5 0 -7 -12 -4 -27 4 -22 2 -25 -12 -20 -10 4 -19 1 -21 -8 -16 -50 -14
-48 -33 -34 -15 13 -16 12 -3 -3 7 -10 17 -15 22 -12 5 3 9 0 9 -5 0 -6 -11
-11 -24 -11 -19 0 -22 -4 -19 -24 4 -19 1 -24 -13 -23 -12 1 -19 -5 -19 -17 0
-11 -8 -20 -18 -22 -24 -3 -31 -10 -18 -19 6 -3 11 -1 11 5 0 6 5 8 10 5 12
-7 14 -26 3 -24 -23 4 -34 -3 -31 -18 2 -13 -3 -18 -18 -17 -21 1 -25 -10 -12
-31 3 -6 0 -19 -8 -30 -8 -10 -14 -14 -14 -9 0 6 6 16 13 24 9 11 8 11 -7 0
-11 -8 -21 -13 -23 -12 -3 2 -8 0 -11 -4 -4 -4 -1 -3 7 1 11 6 13 4 6 -11 -4
-10 -7 -26 -7 -35 0 -12 -5 -15 -18 -12 -15 4 -18 1 -15 -16 2 -11 -1 -24 -7
-27 -7 -5 -8 -2 -3 7 6 11 5 12 -5 2 -10 -9 -10 -16 -2 -26 9 -11 8 -14 -3
-14 -8 0 -12 4 -9 8 2 4 1 10 -4 13 -8 5 -12 -8 -13 -48 0 -13 -6 -17 -20 -13
-15 4 -19 0 -21 -21 0 -15 -1 -34 -2 -42 -1 -8 -6 -14 -11 -12 -6 2 -9 10 -7
19 2 8 -1 12 -6 9 -5 -3 -9 -19 -10 -37 -1 -38 -7 -45 -25 -31 -10 9 -13 5
-11 -19 2 -23 -2 -29 -12 -25 -8 3 -14 1 -14 -5 0 -6 -4 -8 -8 -5 -5 3 -8 -5
-8 -17 1 -12 -4 -22 -11 -22 -6 0 -15 -4 -20 -8 -4 -5 -2 -7 6 -5 7 1 15 -2
18 -8 2 -7 -4 -11 -14 -10 -11 0 -17 -5 -17 -16 1 -10 -4 -18 -11 -18 -21 0
-45 -56 -31 -70 8 -9 5 -11 -14 -8 -21 2 -24 -1 -22 -19 2 -12 -2 -24 -8 -28
-5 -3 -10 -1 -10 6 0 7 -3 9 -7 5 -8 -8 -9 -13 -12 -42 0 -8 -5 -12 -11 -9 -5
3 -10 1 -10 -4 0 -6 5 -11 11 -11 5 0 7 -5 3 -12 -5 -7 -11 -5 -21 7 -12 17
-13 15 -13 -17 0 -20 -4 -40 -10 -43 -6 -3 -10 -1 -10 5 0 6 -4 9 -10 5 -5 -3
-7 -12 -3 -20 3 -8 1 -15 -5 -15 -6 0 -8 -9 -5 -20 5 -18 0 -20 -36 -20 -22 0
-40 3 -40 8 4 22 -3 34 -16 28 -14 -5 -40 26 -30 36 3 3 -2 5 -10 5 -11 0 -12
-4 -5 -11 13 -13 13 -26 -1 -26 -5 0 -7 5 -4 10 3 6 1 10 -4 10 -6 0 -11 7
-11 16 0 14 -3 14 -15 4 -8 -7 -16 -10 -16 -6 -1 3 -3 11 -4 16 -1 6 -3 14 -4
20 0 5 -11 9 -23 8 -36 -1 -48 1 -48 10 0 5 7 9 15 9 8 0 11 -5 8 -10 -4 -6
-1 -7 6 -3 22 14 2 23 -64 30 -16 2 -33 4 -37 5 -5 0 -8 7 -8 15 0 8 -8 15
-17 15 -49 0 -251 0 -272 -1 -16 0 -20 -3 -11 -8 7 -4 8 -10 4 -12 -5 -3 -4
-3 3 -2 7 2 15 -1 18 -5 3 -5 -10 -8 -28 -7 -43 4 -57 -2 -51 -22 5 -14 4 -14
-6 1 -6 9 -16 15 -22 11 -6 -4 -5 -10 3 -15 12 -7 11 -9 -1 -10 -8 -1 -22 -2
-30 -3 -9 0 -14 -9 -12 -20 3 -17 2 -18 -12 -7 -14 12 -16 11 -10 -3 5 -12 2
-15 -11 -9 -15 5 -17 2 -13 -15 3 -12 3 -21 -1 -20 -28 3 -39 -4 -34 -22 4
-15 0 -20 -16 -20 -16 0 -21 -6 -21 -26 0 -14 -4 -23 -10 -19 -13 8 -13 -8 0
-21 7 -7 6 -11 -4 -11 -8 0 -13 3 -11 7 2 3 0 12 -5 19 -5 9 -8 2 -9 -20 -2
-95 -6 -106 -26 -89 -11 9 -14 8 -12 -9 0 -11 5 -17 11 -14 5 4 6 1 0 -8 -5
-8 -9 -64 -9 -125 0 -101 1 -110 17 -106 14 3 18 -2 20 -29 0 -19 2 -39 2 -46
2 -16 16 -29 16 -14 0 7 5 9 12 5 7 -5 5 -12 -8 -22 -13 -10 -14 -13 -3 -9 9
3 21 -3 28 -15 11 -17 15 -18 23 -7 7 10 8 8 3 -8 -3 -12 -1 -24 5 -28 6 -3 8
-10 5 -15 -3 -4 7 -11 22 -15 21 -5 24 -8 12 -15 -10 -7 -5 -11 21 -17 19 -4
38 -6 43 -5 4 1 7 -5 7 -14 0 -14 -2 -15 -17 -3 -14 12 -16 12 -11 -1 2 -8 19
-16 36 -18 29 -3 37 -11 33 -34 0 -5 11 -8 25 -8 20 0 24 -4 19 -19 -4 -13 -1
-18 12 -18 53 0 63 -4 63 -22 0 -12 7 -20 18 -20 38 -1 51 -5 46 -13 -3 -5
-10 -6 -15 -3 -5 4 -9 2 -9 -3 0 -16 13 -22 27 -11 9 9 13 8 13 0 0 -6 9 -11
20 -11 11 0 20 -4 20 -10 0 -5 -6 -10 -12 -10 -9 0 -9 -3 1 -9 8 -5 20 -7 28
-4 9 4 16 -3 20 -16 3 -12 13 -21 24 -21 11 0 19 -6 19 -12 0 -10 2 -10 8 -1
5 8 13 9 22 3 10 -7 11 -10 3 -10 -7 0 -13 -4 -13 -10 0 -5 14 -10 31 -10 26
0 30 -3 26 -19 -3 -14 1 -19 19 -20 49 -3 54 -5 54 -19 0 -12 -3 -12 -15 -2
-9 8 -15 8 -15 2 0 -13 36 -26 49 -18 5 3 15 -2 22 -11 10 -12 10 -14 2 -9 -7
4 -13 2 -13 -3 0 -6 5 -12 10 -12 11 -2 25 -5 38 -9 4 -1 14 -3 22 -4 9 0 14
-9 12 -19 -2 -10 2 -17 10 -16 24 3 53 -2 41 -8 -15 -6 -17 -33 -3 -33 6 0 10
5 10 10 0 6 10 4 23 -5 13 -8 27 -12 30 -8 4 3 7 1 7 -6 0 -7 -6 -11 -13 -8
-8 3 -14 0 -14 -7 0 -6 14 -11 34 -10 26 2 33 -2 33 -17 0 -13 8 -19 25 -20
46 -3 50 -4 47 -22 -2 -13 4 -17 24 -17 24 0 25 -2 13 -17 -8 -9 -9 -14 -2
-10 6 4 13 2 15 -4 2 -6 16 -11 31 -11 15 0 32 -8 39 -16 10 -12 10 -14 1 -8
-7 4 -13 2 -13 -3 0 -6 11 -11 24 -11 14 0 28 -5 32 -12 5 -7 2 -8 -7 -3 -10
6 -9 3 2 -9 8 -9 29 -18 46 -19 22 -1 29 -6 26 -18 -3 -8 3 -21 12 -29 13 -11
15 -10 9 3 -4 12 -1 14 16 10 15 -4 18 -9 11 -16 -16 -16 -13 -26 6 -23 9 2
27 -9 40 -23 12 -14 23 -20 23 -13 0 7 4 11 10 7 5 -3 6 -13 3 -23 -5 -14 -3
-14 9 2 11 14 17 16 23 6 4 -7 2 -16 -5 -20 -8 -5 -7 -9 4 -13 9 -4 16 -1 16
5 0 7 5 6 15 -2 13 -11 13 -15 3 -21 -9 -6 -6 -9 10 -9 15 0 21 4 16 12 -4 7
-3 8 5 4 6 -4 9 -12 6 -17 -6 -9 8 -13 33 -10 6 1 12 -3 12 -9 0 -6 -6 -8 -12
-4 -9 6 -9 3 0 -9 8 -9 17 -16 20 -15 22 2 32 -4 32 -21 0 -14 6 -19 20 -16
11 2 20 0 20 -5 0 -4 10 -6 23 -3 21 4 21 4 -3 -12 -24 -16 -24 -16 -2 -12 12
3 22 1 22 -4 0 -6 8 -9 18 -7 11 2 17 -3 16 -14 -1 -11 5 -18 16 -18 20 0 43
-23 33 -33 -3 -4 10 -7 30 -7 34 0 42 -7 38 -32 0 -5 9 -9 22 -10 12 0 29 -1
37 -2 8 -1 14 -6 12 -11 -2 -6 -10 -9 -18 -9 -8 1 -14 -3 -14 -8 0 -6 9 -8 20
-5 11 3 22 1 25 -4 3 -4 12 -6 20 -2 10 3 15 -2 15 -16 0 -12 6 -21 13 -20 26
3 35 -2 33 -18 -1 -13 8 -19 33 -21 23 -2 35 -9 38 -23 3 -11 13 -19 22 -18
29 3 36 -1 21 -11 -11 -7 -11 -10 -2 -10 7 0 10 -5 6 -12 -4 -6 -3 -8 4 -4 6
3 17 0 24 -7 11 -12 15 -12 26 2 13 15 13 15 8 -1 -5 -18 18 -43 32 -34 6 3
13 -5 16 -18 4 -17 12 -23 29 -21 25 3 49 -7 48 -19 -3 -20 1 -24 19 -19 15 4
20 0 20 -16 0 -20 18 -27 58 -22 14 2 12 -20 -3 -32 -6 -5 -4 -7 5 -6 41 4 62
-2 57 -16 -4 -8 -2 -17 3 -20 5 -3 11 3 13 12 4 17 5 17 6 1 1 -16 19 -23 44
-19 5 1 5 -8 2 -20 -6 -17 -4 -21 7 -17 13 6 56 -18 51 -27 -2 -3 0 -4 4 -2 5
1 7 9 5 17 -2 13 -2 13 7 0 5 -8 7 -18 5 -22 -3 -4 0 -8 6 -8 6 0 8 -6 5 -12
-4 -7 0 -5 8 5 9 10 18 14 21 8 3 -5 0 -11 -6 -14 -10 -3 -10 -8 1 -18 12 -12
13 -12 7 1 -6 12 -5 12 6 -1 7 -9 20 -14 28 -11 13 5 13 3 0 -13 -14 -17 -14
-18 7 -6 19 10 22 9 17 -4 -5 -11 -2 -14 12 -8 12 4 15 3 10 -5 -9 -16 7 -15
22 0 9 9 12 8 12 -6 0 -9 -4 -15 -8 -12 -4 2 -14 1 -22 -4 -11 -7 -10 -9 8
-10 12 0 31 0 42 -1 14 0 20 -7 20 -24 0 -18 4 -22 20 -18 11 3 20 0 20 -6 0
-6 5 -11 11 -11 5 0 7 6 3 13 -5 8 -2 8 9 -2 9 -7 17 -19 17 -26 0 -8 8 -11
20 -8 15 4 20 0 20 -16 0 -17 6 -21 30 -21 17 0 30 -5 30 -11 0 -5 5 -7 12 -3
7 4 8 3 4 -5 -6 -8 -12 -9 -20 -2 -9 8 -13 7 -13 -4 0 -8 3 -13 5 -10 3 3 16
-2 30 -11 14 -9 21 -11 17 -4 -5 8 -3 11 6 8 8 -3 13 -12 13 -21 -1 -9 6 -16
15 -16 41 -2 60 -6 59 -11 -1 -3 2 -13 6 -22 6 -13 12 -15 26 -8 15 8 17 6 13
-10 -3 -11 -10 -17 -17 -13 -6 3 -7 2 -3 -3 5 -5 21 -9 35 -9 21 0 26 -4 24
-19 -2 -11 1 -15 7 -11 6 3 11 2 11 -3 0 -5 13 -8 29 -7 23 1 28 -2 26 -16 -2
-10 3 -20 11 -23 8 -3 14 0 14 6 0 13 14 1 16 -13 1 -5 2 -13 3 -19 0 -5 13
-10 27 -10 17 0 23 -4 18 -12 -6 -10 -4 -10 8 0 13 10 16 9 21 -8 3 -11 12
-20 21 -20 9 0 16 -6 16 -14 0 -15 34 -29 63 -26 11 1 17 -6 17 -21 0 -16 5
-20 20 -16 16 4 20 0 20 -21 0 -25 1 -25 14 -6 8 10 18 16 22 11 4 -4 2 -7 -4
-7 -7 0 -12 -5 -12 -11 0 -5 5 -7 10 -4 6 3 10 1 10 -5 0 -6 8 -10 18 -8 9 2
16 -3 15 -9 -2 -7 2 -14 7 -14 6 -1 14 -2 20 -3 5 0 15 -7 22 -14 11 -11 9
-12 -7 -6 -15 5 -17 4 -10 -4 6 -7 23 -13 37 -14 15 -1 24 -7 21 -12 -4 -5 1
-7 10 -3 10 3 17 2 17 -2 0 -5 -6 -12 -12 -14 -7 -3 2 -6 20 -6 19 -1 31 -5
27 -11 -3 -5 -1 -10 5 -10 6 0 8 -4 5 -10 -4 -6 5 -10 20 -10 19 0 25 -5 23
-17 -2 -13 5 -19 27 -21 51 -5 61 -11 40 -25 -15 -12 -14 -14 14 -15 52 -3 60
-5 55 -14 -3 -4 0 -8 7 -8 7 0 9 -3 6 -6 -4 -4 -13 -1 -22 6 -13 11 -14 10 -9
-4 4 -10 18 -16 39 -16 29 0 33 -3 30 -21 -3 -16 0 -19 15 -14 14 4 20 2 20
-9 0 -9 6 -16 13 -16 8 0 7 -4 -3 -10 -11 -7 -7 -9 15 -5 39 7 64 -8 47 -27
-10 -12 -6 -14 18 -10 26 4 30 1 30 -18 0 -17 4 -21 20 -17 11 3 20 1 20 -4 0
-5 3 -8 8 -8 22 4 34 -3 28 -16 -3 -10 1 -15 14 -16 36 -3 40 -4 39 -14 0 -5
-3 -12 -6 -15 -4 -3 -3 1 2 9 5 10 4 12 -4 7 -6 -4 -9 -12 -5 -17 3 -5 10 -6
16 -3 6 4 17 -1 25 -11 7 -11 13 -13 13 -7 0 7 5 12 10 12 6 0 10 -10 10 -21
0 -17 5 -20 21 -16 17 5 20 2 16 -14 -3 -10 0 -20 6 -21 7 0 17 -2 22 -3 6 -2
20 -3 33 -4 13 0 20 -6 17 -11 -3 -6 1 -17 9 -26 9 -9 16 -11 16 -4 0 6 5 8
11 5 6 -4 8 -13 5 -21 -7 -18 10 -28 20 -12 5 8 12 3 21 -17 8 -17 12 -21 10
-9 -3 12 1 21 9 21 7 0 11 -4 8 -9 -3 -4 1 -8 8 -8 11 0 10 -2 0 -9 -11 -7
-10 -10 3 -15 9 -3 21 -4 26 0 8 5 13 -9 10 -28 0 -5 8 -9 19 -9 19 -1 31 -4
48 -9 4 -1 11 -2 15 -1 5 1 6 -3 2 -9 -3 -5 -1 -18 4 -27 6 -10 11 -12 11 -5
0 21 20 13 20 -8 0 -19 9 -23 61 -23 9 0 15 -8 15 -21 -1 -17 4 -20 23 -18 20
3 23 0 18 -17 -6 -24 3 -27 22 -8 11 10 13 10 7 0 -5 -9 0 -13 13 -13 24 0 36
-16 20 -26 -7 -4 -9 -3 -6 3 3 5 0 10 -8 10 -11 0 -12 -4 -4 -14 6 -7 15 -11
19 -8 12 8 41 -6 34 -16 -3 -5 0 -8 8 -7 7 2 12 -2 11 -9 -1 -6 8 -10 21 -9
19 2 23 -1 21 -15 -3 -12 1 -16 11 -12 7 3 11 10 7 17 -3 6 -2 7 3 3 5 -5 9
-14 9 -20 0 -7 10 -11 21 -10 12 1 21 -4 21 -12 0 -8 -5 -12 -11 -9 -6 3 -3
-1 7 -9 10 -8 28 -13 40 -10 15 3 18 2 9 -5 -18 -12 5 -31 42 -34 15 -1 28
-10 32 -20 3 -10 12 -18 20 -18 8 0 14 -6 14 -14 0 -21 21 -31 31 -15 7 11 9
11 9 -3 0 -11 6 -15 20 -11 12 3 20 0 20 -6 0 -7 -6 -9 -12 -5 -10 5 -10 3 0
-7 7 -8 17 -15 23 -15 5 -1 14 -2 19 -3 6 0 10 -9 10 -19 0 -14 8 -17 35 -17
28 1 35 -2 35 -17 0 -10 5 -18 11 -18 5 0 7 -6 3 -12 -6 -10 -4 -10 7 0 16 14
33 16 24 2 -3 -5 0 -10 7 -10 11 0 10 -2 0 -9 -11 -7 -11 -9 2 -14 9 -4 16 -1
16 5 0 7 5 7 14 -2 8 -6 13 -19 10 -28 -3 -9 2 -6 11 8 16 24 16 24 12 3 -4
-20 -1 -23 25 -23 26 0 29 -2 18 -15 -14 -17 2 -27 49 -29 16 0 29 -3 29 -6
-2 -21 5 -30 22 -30 14 0 20 -6 18 -17 -2 -14 5 -19 30 -21 17 -2 32 -8 32
-13 0 -6 -4 -8 -8 -5 -5 3 -9 -1 -9 -7 0 -8 14 -13 36 -13 29 0 36 -3 36 -19
0 -16 7 -20 35 -21 30 0 35 -4 33 -23 -2 -13 1 -20 7 -16 5 3 18 1 27 -4 10
-6 14 -11 9 -11 -5 0 -3 -6 4 -14 6 -8 17 -13 24 -10 8 3 16 -4 19 -17 4 -14
11 -20 21 -16 14 6 21 -4 17 -26 0 -4 2 -6 6 -6 18 4 73 -14 73 -23 0 -6 7 -5
15 2 9 7 18 10 22 6 3 -3 1 -6 -6 -6 -7 0 -9 -5 -5 -12 4 -6 3 -8 -2 -5 -6 3
-16 2 -24 -4 -11 -6 -8 -9 12 -9 15 0 33 -8 40 -17 14 -19 29 -25 66 -25 12 0
25 -4 28 -9 3 -5 -2 -6 -10 -3 -10 4 -16 1 -16 -8 0 -12 12 -17 58 -20 7 -1
10 -9 6 -20 -3 -10 -2 -18 3 -17 31 5 54 -3 51 -18 -2 -14 3 -17 21 -15 18 3
22 0 18 -12 -3 -8 -2 -18 4 -21 5 -4 9 -3 8 2 -4 24 4 34 10 13 5 -16 13 -24
24 -22 9 2 17 -2 17 -8 0 -6 4 -8 10 -5 6 3 10 2 10 -4 0 -5 -6 -12 -12 -14
-7 -3 -1 -6 14 -6 34 -1 58 -11 58 -23 0 -6 -6 -6 -14 1 -10 8 -16 9 -21 1 -3
-5 -5 -10 -3 -11 2 0 19 -3 38 -6 43 -6 76 -22 45 -23 -32 0 -4 -18 35 -22 19
-2 36 -9 36 -15 1 -7 2 -17 3 -22 0 -5 10 -7 21 -4 15 4 20 0 20 -16 0 -17 6
-21 34 -21 22 0 36 -6 40 -16 5 -14 4 -15 -8 -5 -10 9 -16 9 -21 1 -4 -6 -4
-14 -1 -17 3 -4 6 -1 6 7 0 9 3 10 14 1 8 -6 20 -10 27 -9 8 2 14 -5 14 -17 0
-15 7 -20 25 -20 16 0 26 -6 28 -17 2 -10 8 -18 14 -18 5 0 7 7 4 16 -3 8 -2
12 4 9 6 -3 10 -13 10 -22 0 -9 3 -13 6 -10 11 11 44 -12 38 -27 -3 -9 2 -13
18 -12 14 0 22 -4 20 -11 -2 -12 10 -17 31 -14 4 0 7 -4 7 -10 0 -6 7 -9 15
-5 9 3 15 0 15 -10 0 -8 12 -19 26 -24 15 -6 24 -16 21 -23 -3 -9 7 -14 32
-16 20 -1 40 -7 46 -13 7 -8 4 -9 -10 -4 -16 6 -17 5 -8 -5 7 -7 23 -13 35
-14 15 -1 22 -8 20 -19 -3 -14 9 -21 31 -17 4 0 7 -4 7 -10 0 -8 5 -8 15 1 13
11 16 8 21 -20 4 -17 10 -28 13 -23 12 16 31 12 31 -7 0 -19 10 -24 39 -21 8
2 10 -2 5 -11 -5 -9 -2 -8 11 2 17 14 17 13 10 -9 -5 -16 -4 -21 4 -17 6 4 11
0 12 -11 0 -10 3 -13 6 -5 8 21 36 14 30 -8 -4 -17 0 -20 26 -21 18 -1 35 -1
40 0 4 0 7 -4 7 -10 0 -6 -6 -9 -13 -6 -8 3 -14 -1 -14 -9 0 -8 5 -14 11 -13
38 4 56 -2 56 -21 0 -13 7 -20 20 -20 11 0 20 -4 20 -10 0 -5 5 -10 11 -10 5
0 7 5 4 10 -3 6 -1 10 4 10 6 0 11 -9 11 -19 0 -12 8 -21 20 -23 12 -2 20 -7
20 -12 -2 -14 22 -26 55 -26 29 -1 29 -1 11 -15 -11 -8 -14 -16 -8 -16 7 -1
17 -3 22 -4 6 -1 19 -3 29 -4 14 -1 18 -7 14 -23 -4 -19 -3 -20 6 -8 8 11 11
12 11 2 0 -7 5 -10 10 -7 5 3 10 1 10 -5 0 -6 4 -8 10 -5 5 3 10 1 10 -4 0 -6
-5 -11 -12 -11 -6 0 -8 -3 -4 -7 4 -5 15 1 23 12 11 14 14 15 10 3 -3 -9 3
-24 16 -35 21 -18 21 -18 7 1 -13 17 -13 19 0 14 8 -2 17 -15 21 -29 4 -13 7
-18 8 -11 1 10 6 10 21 2 11 -6 20 -7 20 -3 0 4 6 1 13 -5 6 -7 12 -18 12 -25
0 -7 11 -11 25 -9 14 2 21 -1 15 -5 -12 -10 -18 -33 -8 -32 32 5 53 -3 53 -20
0 -14 7 -18 28 -17 19 1 30 -5 37 -22 6 -13 16 -20 23 -17 8 3 16 -3 19 -14 6
-22 33 -37 33 -18 0 9 3 9 9 -1 4 -7 14 -12 22 -10 8 2 14 -5 14 -17 0 -15 6
-19 23 -17 20 2 22 -1 16 -20 l-7 -23 24 20 c13 11 18 13 12 5 -19 -21 -16
-29 8 -23 18 5 20 3 15 -18 l-7 -24 15 25 c15 25 15 25 16 3 0 -18 6 -23 24
-23 14 0 28 -5 32 -12 4 -7 3 -8 -4 -4 -7 4 -12 3 -12 -3 0 -15 16 -22 50 -23
26 -1 28 -2 12 -14 -9 -7 -14 -16 -9 -20 4 -4 7 -2 7 4 0 7 5 12 11 12 5 0 7
-4 4 -10 -4 -6 5 -10 21 -10 21 0 25 -4 21 -20 -3 -13 0 -20 9 -20 8 0 14 5
14 10 0 6 6 5 14 -2 8 -7 12 -16 10 -20 -8 -12 18 -24 56 -27 13 -1 20 -8 20
-21 0 -11 5 -20 10 -20 6 0 10 6 10 13 0 9 2 9 9 -1 4 -7 17 -14 29 -15 11 0
19 -5 16 -9 -3 -4 -12 -4 -21 -1 -10 4 -14 2 -11 -7 3 -11 36 -20 85 -23 7 0
10 -4 7 -9 -3 -5 -10 -5 -16 -2 -6 4 -9 1 -6 -7 3 -8 12 -13 21 -11 8 1 19 -3
23 -9 4 -8 3 -9 -4 -5 -18 11 -14 0 5 -15 11 -10 14 -10 9 -1 -4 7 -2 12 4 12
6 0 8 5 4 12 -4 7 -3 8 5 4 6 -4 9 -12 6 -17 -4 -5 -1 -17 4 -26 6 -10 11 -13
11 -7 0 12 30 15 30 2 0 -4 -5 -8 -12 -8 -28 0 10 -16 46 -19 4 -1 6 -7 3 -15
-3 -8 0 -17 8 -20 10 -3 12 0 9 12 -5 15 -4 15 9 0 8 -10 25 -18 38 -18 17 0
20 -3 10 -9 -11 -7 -11 -10 0 -17 8 -5 17 -9 22 -9 4 0 16 -13 26 -28 10 -16
20 -24 22 -18 3 7 9 7 19 1 13 -8 12 -10 -3 -10 -10 0 -16 -4 -13 -9 4 -5 -2
-8 -11 -6 -10 1 -25 -3 -33 -9 -10 -7 -9 -3 3 10 19 22 24 45 6 27 -7 -7 -21
-8 -38 -3 -14 4 -35 4 -46 0 -11 -4 -27 -4 -35 -1 -11 5 -259 6 -465 1 -5 0
-36 1 -67 2 -55 3 -57 2 -53 -20 2 -12 0 -20 -6 -17 -5 4 -7 10 -4 15 3 5 1
11 -5 15 -18 11 -49 14 -55 5 -3 -5 -14 -7 -25 -5 -12 2 -18 0 -15 -6 4 -5 13
-9 21 -9 8 0 14 -4 14 -10 0 -6 -9 -6 -24 0 -13 5 -27 6 -31 2 -4 -4 -5 4 -1
18 3 14 3 19 0 12 -3 -6 -10 -10 -14 -7 -5 3 -15 -3 -22 -12 -11 -15 -28 -18
-93 -18 -64 1 -84 -3 -101 -18 -15 -12 -24 -15 -29 -8 -3 7 -1 10 6 9 6 -2 13
3 14 10 2 7 1 8 -2 2 -2 -5 -8 -8 -12 -5 -5 2 -17 -4 -27 -14 -17 -16 -20 -16
-32 -2 -8 9 -11 10 -7 4 6 -13 -5 -17 -39 -13 -12 1 -16 -2 -11 -11 6 -9 4
-10 -6 -3 -18 12 -50 12 -71 2 -12 -6 -18 -5 -18 2 0 6 -5 8 -11 4 -8 -4 -7
-9 2 -15 7 -4 17 -5 21 -3 4 3 8 0 8 -6 0 -5 -12 -10 -27 -10 -58 1 -98 -4
-105 -15 -5 -6 -8 -6 -8 3 0 6 -5 12 -10 12 -6 0 -10 -7 -8 -16 3 -18 -9 -22
-85 -25 -29 -2 -54 -9 -67 -21 -13 -12 -34 -18 -65 -18 -40 0 -45 -3 -45 -22
l-1 -23 -13 24 c-11 20 -14 21 -19 7 -4 -10 -3 -15 3 -11 6 3 10 1 10 -4 0 -9
-74 -17 -104 -12 -5 1 -4 -5 4 -13 7 -9 11 -17 9 -17 -4 -1 -25 -3 -96 -10
-17 -2 -31 -6 -31 -9 2 -21 -6 -27 -34 -28 -29 -1 -52 -18 -43 -32 2 -3 -14
-6 -36 -5 -22 1 -38 -3 -37 -9 2 -6 0 -11 -3 -11 -3 0 -12 -5 -20 -10 -8 -6
-30 -10 -50 -10 -25 0 -35 -4 -32 -12 3 -7 13 -13 22 -14 10 0 12 -2 3 -6 -7
-3 -20 1 -29 9 -12 9 -15 9 -9 1 7 -13 0 -16 -37 -16 -12 0 -16 -5 -13 -14 7
-16 -6 -22 -57 -26 -39 -3 -48 -10 -33 -24 6 -5 6 -2 1 7 -8 13 -7 13 8 1 21
-17 21 -18 0 -18 -48 0 -62 -4 -65 -20 -3 -14 -12 -18 -65 -25 -7 -1 -13 -10
-13 -20 0 -10 -4 -18 -10 -18 -9 0 -14 15 -11 33 1 5 -3 6 -8 2 -6 -3 -8 -12
-4 -20 3 -10 -1 -15 -15 -15 -12 0 -24 -5 -28 -11 -4 -8 1 -9 17 -4 23 7 23 7
4 -8 -11 -8 -27 -13 -37 -12 -18 4 -43 -27 -31 -39 3 -3 1 -6 -6 -6 -7 0 -11
7 -8 15 4 8 1 17 -5 21 -6 4 -9 3 -5 -2 3 -5 -2 -18 -10 -29 -11 -14 -17 -16
-20 -7 -3 6 -9 10 -13 7 -5 -3 -7 -12 -3 -20 5 -14 -7 -19 -35 -16 -10 2 -12
-4 -7 -21 7 -22 6 -22 -7 -4 -12 15 -17 16 -23 6 -5 -9 -4 -11 3 -6 7 4 12 2
12 -3 0 -6 -4 -12 -10 -12 -5 -1 -14 -3 -20 -4 -5 -1 -15 -3 -21 -4 -5 0 -7
-6 -4 -11 7 -11 -35 -31 -47 -23 -5 2 -8 -1 -8 -6 0 -6 5 -11 12 -11 9 0 9 -3
0 -12 -10 -10 -15 -10 -22 2 -5 8 -10 10 -10 4 0 -7 -9 -14 -20 -17 -11 -3
-20 -12 -20 -21 0 -9 -8 -16 -20 -16 -13 0 -20 -7 -20 -20 0 -21 -19 -28 -21
-7 0 6 -6 -1 -14 -17 -12 -27 -22 -33 -67 -38 -12 -2 -16 -8 -13 -19 4 -13 -1
-18 -17 -21 -16 -2 -22 -9 -20 -22 2 -12 -1 -16 -9 -10 -9 5 -10 2 -5 -11 6
-18 6 -18 -15 1 -12 10 -19 14 -16 7 10 -17 -4 -45 -19 -39 -13 5 -18 -6 -15
-26 1 -8 -14 -12 -35 -9 -6 1 -11 -9 -10 -21 1 -17 -5 -23 -19 -23 -13 0 -19
-6 -17 -17 2 -13 -4 -18 -23 -18 -22 0 -24 -3 -16 -19 9 -15 7 -20 -9 -24 -10
-3 -21 0 -24 7 -2 6 -5 -5 -6 -24 -1 -29 -3 -32 -10 -15 -5 11 -9 14 -9 7 -1
-6 -7 -11 -13 -10 -8 2 -12 -6 -10 -19 2 -18 -1 -21 -17 -18 -17 3 -21 -1 -21
-20 0 -13 -5 -27 -12 -31 -7 -5 -8 -3 -3 6 5 8 3 11 -6 8 -8 -3 -15 -10 -15
-16 -1 -7 -2 -16 -3 -21 0 -5 -10 -7 -21 -4 -16 4 -18 1 -14 -22 3 -17 1 -24
-6 -20 -5 3 -10 -1 -10 -10 0 -8 -9 -19 -21 -23 -11 -5 -20 -12 -18 -17 1 -6
-8 -15 -21 -21 -13 -7 -18 -14 -11 -18 14 -9 14 -26 0 -26 -5 0 -8 4 -5 9 3 5
0 11 -7 14 -12 4 -15 -5 -19 -50 -1 -7 -4 -12 -7 -11 -20 2 -29 -4 -34 -22 -3
-11 -11 -19 -18 -18 -8 2 -15 -7 -17 -19 -2 -15 -10 -23 -23 -23 -11 0 -18 -4
-14 -10 3 -5 13 -7 23 -4 14 5 14 4 2 -4 -8 -6 -18 -8 -22 -6 -4 3 -8 -6 -8
-20 0 -14 -4 -26 -10 -26 -5 0 -7 8 -3 18 5 14 3 13 -10 -3 -9 -11 -17 -30
-17 -43 0 -12 -3 -21 -7 -21 -21 3 -31 -3 -29 -18 0 -11 -6 -18 -16 -18 -9 0
-20 -4 -25 -9 -4 -5 -3 -6 5 -2 6 4 12 2 12 -4 0 -6 5 -8 12 -4 7 4 8 3 4 -5
-4 -6 -11 -9 -16 -6 -10 6 -22 -23 -14 -36 3 -5 -4 -9 -15 -9 -20 0 -24 -9
-24 -61 0 -11 -6 -15 -18 -12 -15 4 -19 0 -19 -20 0 -21 -4 -25 -21 -22 -13 3
-19 0 -16 -8 3 -7 10 -11 16 -9 7 1 10 -2 6 -8 -3 -6 -10 -8 -15 -5 -4 3 -11
-6 -14 -20 -4 -14 -12 -25 -20 -25 -12 0 -16 -11 -17 -52 0 -22 -15 -32 -25
-17 -4 8 -3 9 4 5 8 -5 10 -2 6 9 -4 9 -9 13 -12 11 -5 -6 -13 -66 -13 -101 0
-12 -3 -15 -7 -8 -9 15 -34 1 -32 -18 4 -27 0 -37 -17 -35 -12 1 -17 -7 -17
-29 -1 -16 -5 -33 -10 -37 -6 -4 -4 -14 4 -25 14 -17 14 -17 -6 0 -25 21 -41
23 -24 2 8 -9 9 -15 2 -15 -6 0 -9 -9 -7 -20 2 -11 0 -18 -6 -15 -5 4 -9 1 -9
-5 0 -6 -4 -8 -10 -5 -5 3 -10 1 -10 -5 0 -7 9 -9 23 -6 12 3 16 3 9 0 -6 -3
-10 -10 -7 -15 4 -5 -1 -6 -9 -3 -12 5 -16 -1 -16 -21 0 -15 -4 -24 -10 -20
-5 3 -10 -1 -10 -10 0 -10 5 -13 13 -9 8 5 8 2 -2 -9 -16 -20 -25 -23 -15 -4
5 8 4 9 -4 2 -6 -5 -12 -28 -14 -50 -2 -22 -8 -38 -13 -36 -6 1 -8 8 -7 14 2
7 0 8 -4 4 -9 -9 -12 -26 -15 -89 -2 -27 -7 -48 -11 -48 -5 0 -6 10 -3 23 4
15 3 18 -3 8 -8 -11 -10 -11 -15 0 -2 8 -4 1 -4 -16 0 -69 -3 -96 -13 -90 -5
3 -10 1 -10 -5 0 -6 -4 -9 -8 -6 -4 3 -8 -15 -7 -39 1 -55 -10 -86 -27 -80 -9
4 -13 -4 -13 -25 -1 -16 4 -30 10 -30 5 0 5 -4 -2 -8 -7 -4 -14 -30 -15 -58
-3 -45 -5 -50 -23 -47 -15 4 -17 2 -6 -5 7 -5 9 -12 4 -15 -5 -3 -9 -25 -9
-47 1 -34 -2 -40 -16 -37 -12 3 -15 -1 -13 -14 2 -11 -2 -19 -8 -19 -8 0 -8
-3 -2 -8 12 -8 13 -21 4 -37 -3 -5 -5 -27 -3 -47 1 -35 0 -37 -20 -27 -17 8
-16 6 4 -10 24 -20 19 -27 -19 -22 -7 2 -10 -3 -6 -9 4 -6 13 -9 21 -6 8 3 14
1 14 -5 0 -5 -6 -12 -13 -15 -15 -5 -19 -36 -20 -151 -1 -58 -5 -84 -14 -87
-7 -3 -13 1 -13 10 0 8 4 13 8 10 4 -2 8 4 9 14 1 11 -3 23 -9 26 -7 4 -8 2
-4 -4 4 -7 4 -18 -1 -24 -8 -13 -10 -53 -15 -380 -1 -124 -6 -184 -13 -180 -5
3 -5 -1 2 -9 14 -18 10 -55 -6 -52 -6 2 -11 -2 -11 -8 0 -6 6 -9 13 -6 12 4
15 -53 20 -334 1 -68 4 -86 15 -81 8 2 10 8 5 11 -4 3 -9 20 -10 36 -2 27 -1
28 9 10 18 -30 17 -58 -1 -73 -9 -8 -11 -11 -5 -8 17 8 21 -10 21 -90 0 -51 6
-79 18 -98 11 -16 18 -48 19 -77 1 -27 5 -49 10 -49 6 0 5 -5 -2 -12 -12 -12
3 -53 17 -44 8 5 9 -7 13 -106 1 -37 6 -64 10 -62 4 3 8 0 8 -6 0 -6 4 -8 10
-5 6 4 10 -8 10 -27 0 -19 6 -40 13 -47 9 -11 9 -13 0 -7 -7 4 -13 2 -13 -3 0
-6 5 -11 11 -11 8 0 7 -6 -2 -17 -11 -13 -11 -17 -1 -20 6 -3 9 -10 6 -15 -4
-7 -2 -8 5 -4 6 4 9 11 7 15 -3 4 0 13 5 21 9 13 10 13 8 0 -1 -8 -1 -39 0
-68 1 -49 3 -53 21 -47 12 4 20 2 20 -5 0 -6 -4 -9 -8 -6 -4 2 -14 1 -22 -5
-12 -7 -10 -9 8 -9 12 0 22 -5 22 -11 0 -5 -6 -7 -12 -3 -10 6 -10 5 -1 -7 7
-8 13 -35 15 -61 2 -32 7 -44 16 -41 10 4 10 9 1 19 -7 8 -9 17 -5 21 3 3 6 1
6 -6 0 -7 4 -10 10 -6 5 3 10 -20 12 -56 2 -39 8 -64 16 -67 7 -2 10 2 6 12
-3 9 -1 16 5 16 6 0 10 -3 10 -7 -1 -5 -1 -28 0 -52 1 -33 4 -42 16 -38 8 4
17 2 20 -3 6 -9 -8 -14 -27 -11 -5 0 -8 -4 -8 -10 0 -6 7 -9 15 -6 18 8 24 -1
27 -46 1 -26 6 -36 17 -34 7 1 16 -4 19 -12 3 -9 0 -11 -9 -6 -11 6 -12 5 -1
-6 6 -7 12 -24 12 -37 0 -24 0 -24 18 -5 9 10 14 14 9 9 -10 -14 -9 -28 2 -22
11 7 9 -13 -2 -31 -5 -8 -4 -13 2 -13 6 0 11 -10 11 -22 0 -18 2 -20 10 -8 12
19 23 7 23 -24 0 -14 3 -23 7 -21 5 3 6 -4 3 -15 -4 -15 -2 -19 10 -14 11 4
16 -2 19 -23 2 -17 9 -28 18 -28 10 0 15 -10 14 -28 0 -15 4 -27 9 -27 4 0 5
-5 2 -10 -3 -6 -1 -10 5 -10 6 0 9 -4 5 -9 -3 -5 0 -13 6 -17 7 -4 9 -3 5 4
-3 6 -3 13 2 16 4 2 8 -3 9 -12 3 -35 8 -47 26 -54 11 -5 17 -18 17 -39 0 -23
5 -32 21 -36 14 -4 19 -12 16 -24 -4 -15 0 -19 20 -19 20 0 23 -4 18 -20 -4
-12 -2 -20 5 -20 7 0 8 -6 1 -19 -9 -15 -7 -18 12 -17 15 1 22 -4 21 -16 -1
-10 7 -20 17 -23 11 -4 19 -16 19 -29 0 -13 8 -30 18 -37 15 -13 16 -12 3 3
-12 16 -11 18 3 18 12 0 16 -9 16 -35 0 -28 4 -35 20 -35 14 0 20 -7 20 -24 0
-19 4 -23 20 -19 16 4 20 0 21 -23 1 -16 1 -33 0 -37 -1 -5 3 -6 9 -2 6 3 8
11 5 16 -4 5 -2 9 4 9 17 0 24 -22 10 -31 -11 -7 -10 -9 4 -10 30 -3 35 -4 43
-11 3 -4 -3 -6 -15 -3 -11 2 -21 0 -21 -6 0 -5 9 -9 21 -9 15 0 20 -5 17 -22
-2 -17 2 -23 17 -23 12 0 21 -9 25 -25 6 -24 6 -24 19 -5 8 13 11 14 7 3 -2
-9 -2 -19 2 -23 4 -4 7 -12 7 -18 0 -7 8 -11 18 -9 9 2 17 -1 18 -5 3 -35 19
-72 19 -45 0 19 20 14 20 -5 1 -10 7 -29 16 -43 14 -23 14 -23 9 -2 -4 13 -2
22 4 22 6 0 11 -9 11 -20 0 -13 7 -20 20 -20 11 0 19 -3 19 -7 -4 -23 3 -33
22 -33 16 0 19 -4 14 -21 -6 -19 -4 -21 14 -16 27 7 37 -8 14 -23 -17 -11 -17
-11 0 -6 9 3 17 1 17 -4 0 -6 9 -10 19 -10 14 0 19 -6 16 -20 -3 -15 2 -20 20
-20 18 0 23 -5 20 -18 -2 -11 3 -19 10 -19 8 0 12 4 9 9 -3 4 -1 8 4 8 5 0 12
-15 16 -32 5 -24 9 -29 15 -19 8 12 14 10 36 -7 14 -11 26 -23 26 -26 -2 -20
0 -26 10 -26 5 0 7 4 4 10 -3 6 1 7 10 4 14 -6 14 -8 -2 -20 -17 -12 -17 -13
2 -13 37 -1 54 -4 53 -10 -2 -22 5 -31 22 -31 14 0 20 -7 20 -21 0 -13 6 -20
18 -18 39 3 47 0 28 -14 -17 -12 -17 -14 -2 -20 9 -4 16 -2 16 3 0 6 5 10 12
10 6 0 8 -3 5 -7 -4 -3 17 -22 46 -41 28 -19 44 -32 34 -28 -11 3 -16 2 -12
-4 3 -6 15 -10 26 -10 16 0 23 -9 21 -30 0 -3 7 -6 16 -7 47 -4 78 -23 58 -35
-6 -4 4 -8 22 -8 25 0 32 -4 30 -17 -2 -11 5 -18 17 -21 56 -9 69 -14 56 -21
-18 -12 0 -21 44 -23 20 -1 31 -4 26 -7 -19 -12 5 -30 41 -33 20 -1 36 -4 36
-7 -2 -23 5 -31 26 -31 19 0 24 -5 21 -19 -2 -10 2 -18 8 -18 57 1 79 -4 84
-22 4 -14 11 -18 30 -15 20 4 24 1 19 -11 -6 -17 4 -23 49 -28 17 -2 37 -7 44
-12 10 -6 12 -4 7 6 -4 8 0 5 8 -5 9 -11 16 -22 16 -25 0 -3 18 -6 40 -6 22 0
40 -4 40 -10 0 -13 -23 -13 -33 0 -5 6 -7 5 -5 -4 4 -16 25 -22 80 -23 20 -1
37 -4 36 -7 -3 -27 0 -29 90 -34 12 0 22 -5 22 -10 0 -5 -6 -7 -13 -4 -8 3
-14 -1 -14 -8 0 -6 7 -12 16 -12 78 -1 93 -4 87 -18 -3 -8 -2 -14 2 -14 4 1 9
0 12 -1 9 -3 84 -10 120 -10 25 0 31 -3 20 -10 -8 -5 -17 -7 -21 -4 -4 2 -11
-1 -15 -7 -4 -7 -3 -9 4 -5 6 3 13 3 16 -2 3 -5 23 -8 46 -7 22 1 40 -1 40 -5
0 -4 14 -4 32 -2 27 4 30 2 24 -13 -5 -14 -2 -17 19 -13 14 3 25 2 25 -2 0 -4
15 -7 33 -5 17 1 40 -5 50 -14 20 -17 31 -20 102 -24 28 -1 56 -6 63 -11 6 -4
12 -2 12 3 0 6 5 11 11 11 5 0 8 -4 5 -9 -3 -5 14 -8 39 -6 24 1 42 -1 40 -5
-3 -4 -18 -6 -35 -5 -17 1 -33 -1 -35 -5 -3 -5 3 -7 12 -6 10 2 28 0 40 -5 13
-5 25 -4 28 2 4 5 10 7 14 5 4 -3 27 -6 50 -7 23 -2 45 -7 47 -11 3 -4 11 -8
17 -8 8 0 7 3 -2 9 -10 7 -7 9 12 8 15 -1 27 -6 27 -10 0 -4 8 -3 18 2 13 7
22 7 29 0 8 -8 17 -8 31 0 20 11 42 -2 28 -16 -3 -4 -6 -1 -6 6 0 8 -5 9 -19
2 -10 -6 -28 -8 -40 -6 -11 2 -21 0 -21 -4 0 -5 15 -9 33 -9 17 0 214 -1 436
-2 325 -1 406 1 412 12 6 9 9 9 9 1 0 -7 13 -11 31 -11 19 1 25 4 18 9 -7 4
-16 6 -20 3 -4 -2 -13 4 -20 14 -13 15 -12 16 3 4 11 -9 18 -10 23 -2 3 5 12
10 18 10 7 0 6 -4 -3 -10 -13 -8 -13 -10 2 -10 9 0 20 5 23 10 4 7 13 7 26 0
11 -7 19 -7 19 -1 0 10 25 9 36 -2 4 -4 12 -7 18 -7 6 0 4 5 -4 10 -10 7 8 10
60 11 41 1 82 0 89 -1 12 -1 12 1 3 12 -9 11 -9 15 1 16 6 1 23 3 37 5 14 2
31 -2 39 -7 11 -8 13 -8 8 1 -5 8 2 11 21 11 16 -1 34 2 40 6 6 3 13 0 15 -6
4 -8 6 -7 6 4 1 9 -7 18 -16 21 -10 2 -4 4 13 4 17 0 37 4 44 8 9 5 11 4 6 -3
-4 -7 -3 -12 3 -12 5 0 13 5 16 11 4 6 13 8 21 5 22 -9 76 5 71 18 -3 8 9 13
32 15 20 2 56 5 81 7 25 2 54 4 65 5 16 0 17 2 5 9 -8 5 -21 5 -30 0 -11 -6
-17 -5 -17 3 0 7 18 13 41 15 22 1 47 8 55 15 12 9 13 9 7 -1 -5 -8 -1 -11 16
-8 13 2 22 9 21 18 -2 9 8 15 30 16 18 1 44 5 57 8 14 3 30 6 37 6 7 1 10 5 7
9 -7 11 9 18 49 21 24 1 37 7 37 16 0 9 -6 12 -16 8 -8 -3 -12 -2 -9 4 3 5 21
8 41 6 19 -1 37 1 40 5 2 4 14 5 27 3 12 -2 16 -2 10 2 -7 3 -13 10 -13 15 0
6 5 7 10 4 6 -3 10 -2 10 3 0 5 12 9 27 8 16 0 28 4 28 11 0 20 14 27 58 28
46 1 67 10 67 28 0 7 -4 6 -10 -3 -8 -13 -10 -13 -10 1 0 12 10 16 49 15 27
-1 47 2 44 7 -9 15 18 34 46 32 24 -2 29 1 26 16 -3 14 2 19 21 19 21 0 29 9
25 33 -1 7 28 11 61 8 9 -1 19 3 23 9 3 5 1 10 -5 10 -6 0 -8 5 -5 10 3 6 22
10 40 10 28 0 36 5 41 24 4 18 11 22 26 18 17 -4 20 -2 15 12 -4 10 -3 15 3
11 6 -3 10 -2 10 3 0 6 16 9 35 8 20 -1 31 2 25 8 -11 11 14 37 32 34 7 -2 12
2 11 9 -1 6 5 17 14 24 14 12 15 11 9 -9 -5 -14 -3 -22 4 -22 6 0 9 4 5 9 -3
5 -1 12 5 16 6 4 8 10 5 15 -3 5 0 12 6 16 8 4 9 3 5 -4 -4 -7 -3 -12 3 -12 6
0 15 9 21 20 6 11 16 17 25 14 10 -4 15 0 15 15 0 14 6 21 20 21 11 0 20 5 20
10 0 6 5 10 11 10 5 0 7 -4 4 -10 -3 -6 -2 -10 3 -10 5 0 12 8 15 19 3 15 0
17 -17 13 -11 -3 -18 -1 -14 3 4 4 21 8 38 7 16 0 33 4 36 10 5 8 1 9 -11 4
-15 -5 -16 -4 -6 8 7 8 22 16 33 18 12 2 23 9 26 17 3 9 0 11 -8 6 -9 -5 -11
-4 -6 4 4 6 16 9 27 6 17 -6 24 5 21 36 -1 3 9 5 21 5 12 -1 22 5 22 12 0 12
16 15 25 5 3 -4 -1 -3 -9 2 -10 5 -12 4 -7 -4 11 -16 26 -3 19 16 -5 13 -2 15
15 11 20 -6 26 1 24 24 -1 3 5 12 13 18 11 9 15 10 15 1 0 -7 5 -9 11 -6 6 4
8 13 5 21 -3 8 -1 14 5 14 6 0 7 6 3 13 -5 8 -2 8 9 -2 9 -7 17 -12 18 -10 0
2 2 12 4 23 2 10 9 24 16 30 9 8 10 8 5 -1 -5 -8 -1 -13 9 -13 9 0 13 4 10 10
-8 14 7 35 25 35 9 0 14 7 12 17 -2 14 4 18 30 19 18 0 27 3 21 6 -21 8 -15
33 7 33 13 0 20 7 20 20 0 13 7 20 20 20 15 0 20 7 20 24 0 14 5 28 10 31 6 4
9 2 8 -3 -2 -6 1 -11 7 -12 5 0 15 16 21 37 7 21 12 30 13 21 1 -9 6 -20 12
-23 6 -4 10 -1 8 6 -3 26 1 40 10 34 9 -5 27 32 23 48 -1 4 8 3 20 -4 13 -6
20 -8 16 -4 -4 5 -2 15 5 24 10 14 10 14 -5 3 -12 -10 -18 -10 -24 -1 -4 7 -3
9 4 5 6 -3 14 -1 17 5 4 5 13 8 21 5 8 -3 14 -1 14 4 0 6 -4 10 -10 10 -5 0
-10 5 -10 10 0 6 8 10 18 8 12 -2 17 3 16 20 -1 15 4 21 15 20 10 -2 17 5 19
20 3 18 8 23 23 19 14 -4 19 0 19 13 0 11 10 26 22 34 12 9 18 16 14 16 -5 0
-17 -6 -26 -13 -9 -6 -5 -1 10 12 14 14 24 30 22 38 -3 12 10 17 31 14 6 -1
11 31 10 66 -1 7 4 10 9 7 5 -3 7 -12 5 -18 -3 -7 1 -13 8 -13 7 0 10 8 7 19
-2 10 1 18 7 18 9 0 9 5 1 20 -6 11 -7 20 -3 19 28 -5 42 3 38 21 -3 14 2 20
16 20 12 0 19 7 19 18 0 11 10 24 23 31 l22 11 -22 -6 c-18 -4 -22 -2 -17 10
3 8 12 12 20 9 13 -5 18 7 15 34 -1 7 8 13 19 13 11 0 20 6 19 12 -3 28 1 39
14 32 8 -5 7 -2 -2 9 -8 10 -10 21 -6 25 4 4 10 1 12 -6 7 -19 23 -4 23 22 0
12 6 28 13 35 10 11 9 13 0 7 -7 -4 -13 -2 -13 5 0 6 8 9 20 6 16 -4 20 0 20
17 0 14 9 28 23 35 l22 11 -22 -6 c-13 -3 -23 -1 -23 4 0 5 9 12 20 15 18 5
27 35 21 70 -1 5 3 6 9 2 5 -3 10 -1 10 5 0 6 5 8 10 5 6 -4 10 6 10 24 0 16
5 33 10 36 6 4 8 11 5 16 -3 5 1 6 10 3 11 -5 16 -2 15 7 -6 41 1 71 14 66 17
-7 22 6 21 48 0 21 6 32 19 35 14 4 20 16 22 44 1 21 8 43 15 50 9 8 10 8 5
-1 -4 -7 -2 -13 3 -13 15 0 14 13 -1 29 -10 11 -10 13 0 7 8 -5 12 1 12 19 0
18 4 24 13 19 10 -6 10 -4 0 7 -18 18 -16 29 5 29 16 0 21 18 25 106 1 14 6
20 17 17 13 -4 17 5 19 49 1 34 8 58 18 68 15 13 16 13 5 -1 -9 -12 -9 -16 1
-16 9 0 13 14 12 41 -1 48 11 80 27 70 6 -4 8 -3 4 4 -3 6 -2 13 3 17 10 6 7
37 -5 57 -5 7 -3 8 6 3 10 -6 12 -3 8 12 -3 11 -1 28 4 37 5 9 5 16 0 16 -5 0
-9 7 -9 15 0 8 3 15 7 15 4 0 7 10 6 22 0 11 6 23 14 25 13 4 13 3 0 -6 -13
-10 -13 -11 0 -11 11 0 15 13 16 58 1 31 5 66 9 76 7 15 5 17 -6 11 -12 -7
-12 -6 -1 7 9 11 10 18 2 23 -6 3 -8 11 -4 16 3 5 10 7 15 3 5 -3 7 -9 5 -13
-3 -4 -1 -13 4 -20 5 -9 9 4 9 35 3 101 5 119 16 126 7 5 7 8 -1 8 -6 0 -10
17 -8 43 1 23 3 42 4 42 1 0 3 8 5 18 2 9 -1 17 -7 17 -6 0 -5 6 2 15 10 12
10 15 -1 15 -12 0 -12 2 0 9 8 5 10 14 5 22 -6 12 -5 12 8 1 19 -15 20 17 20
408 0 185 -3 255 -11 258 -8 3 -6 9 6 19 16 13 16 14 1 9 -12 -3 -15 -1 -11
10 3 7 9 14 14 14 4 0 6 6 4 13 -11 30 -13 67 -4 72 13 9 -9 45 -24 40 -8 -4
-12 9 -13 44 0 33 3 48 10 44 6 -4 6 -1 -1 8 -6 8 -10 27 -9 42 2 15 -1 30 -6
33 -6 4 -5 10 3 15 11 7 11 9 -1 9 -13 0 -13 1 0 10 8 5 10 10 3 10 -6 0 -9 9
-6 20 3 11 1 20 -5 20 -6 0 -9 -11 -8 -24 2 -14 -1 -30 -6 -38 -8 -10 -9 -9
-5 3 3 9 1 22 -3 30 -6 9 -2 22 13 39 12 14 15 19 7 13 -20 -18 -26 -16 -26 6
0 11 5 17 11 13 5 -3 4 2 -4 12 -13 15 -13 19 0 27 10 6 10 9 1 9 -8 0 -11 9
-8 26 4 18 -2 33 -19 49 -14 15 -19 25 -12 28 9 3 9 8 1 18 -5 8 -9 38 -9 66
2 46 0 51 -13 40 -13 -10 -14 -9 -3 10 10 20 9 22 -5 16 -12 -4 -15 -3 -10 5
4 6 2 21 -4 32 -8 15 -8 20 1 20 8 0 8 4 1 13 -6 6 -9 30 -7 52 2 22 1 34 -2
27 -2 -6 -10 -9 -16 -5 -8 4 -7 1 1 -9 10 -13 10 -17 0 -21 -9 -3 -14 7 -15
32 -6 115 -8 128 -20 124 -7 -3 -11 -9 -8 -13 3 -5 0 -12 -7 -16 -7 -4 -10 -4
-6 0 3 4 2 21 -2 37 -5 17 -5 29 0 29 6 0 6 10 0 25 -5 14 -6 25 -2 25 4 0 -3
8 -15 18 -17 13 -23 29 -25 68 -2 32 -7 51 -15 51 -9 0 -10 -4 -2 -13 7 -8 7
-14 -1 -19 -5 -3 -11 0 -11 7 -5 45 -7 56 -13 67 -4 6 -12 8 -18 5 -7 -4 -8
-2 -4 5 4 6 12 9 17 6 5 -4 9 1 9 9 0 17 -20 17 -33 1 -5 -6 -6 -2 -3 9 4 10
2 24 -4 31 -8 10 -8 15 0 20 8 5 2 14 -17 26 -15 10 -22 19 -15 19 10 0 10 5
1 23 -7 12 -12 23 -11 25 6 8 0 22 -7 17 -13 -7 -20 6 -23 43 -1 17 -5 29 -9
26 -11 -7 -30 23 -27 43 2 12 -2 17 -12 15 -8 -2 -11 0 -7 4 4 5 19 10 34 12
24 3 24 2 9 -14 -19 -18 -17 -36 5 -42 11 -3 11 -2 -1 7 -13 9 -13 12 -1 23
11 10 13 10 7 0 -6 -9 -1 -11 19 -8 23 4 26 2 22 -14 -3 -11 -1 -18 4 -14 5 3
9 1 9 -3 0 -5 10 -9 21 -10 12 -1 27 -7 33 -13 6 -6 7 -10 1 -8 -6 2 -10 -1
-10 -7 0 -5 11 -10 24 -10 13 0 27 -7 29 -15 7 -21 20 -28 51 -25 16 1 28 -3
28 -10 0 -6 -6 -12 -13 -12 -7 0 -10 5 -7 10 4 6 1 7 -6 3 -21 -14 -5 -22 45
-25 14 0 22 -5 19 -11 -4 -6 -11 -7 -17 -4 -7 4 -8 2 -4 -5 4 -6 11 -9 16 -6
5 3 12 0 15 -6 4 -5 14 -8 22 -5 9 4 11 2 7 -6 -5 -8 -2 -9 10 -5 14 5 15 3 6
-13 -9 -16 -7 -18 14 -14 24 4 56 -17 56 -36 0 -5 7 -7 15 -4 10 4 15 0 15
-10 0 -16 40 -38 62 -33 6 1 14 -7 17 -19 4 -13 13 -20 24 -18 9 1 17 -2 17
-7 0 -5 5 -9 11 -9 5 0 7 4 4 10 -4 6 1 7 11 3 14 -5 13 -8 -7 -19 l-24 -13
25 -2 c14 -1 33 -2 42 -1 10 1 17 -2 17 -6 -4 -22 3 -32 22 -32 11 0 17 -4 14
-10 -3 -5 -1 -10 4 -10 6 0 11 5 11 12 0 6 3 8 7 4 5 -4 -1 -14 -12 -23 -20
-15 -20 -15 0 -13 48 5 65 0 65 -20 0 -14 7 -20 24 -20 17 0 23 -5 22 -17 -1
-17 4 -19 52 -22 15 -1 22 -7 22 -22 0 -15 5 -19 15 -15 10 4 19 -3 25 -19 6
-16 15 -23 25 -19 15 6 19 -4 16 -36 -2 -12 0 -12 7 -1 8 11 14 11 33 0 13 -7
25 -12 27 -11 10 7 12 -1 3 -12 -10 -12 -9 -14 6 -11 10 1 24 -2 30 -7 7 -6
20 -7 29 -4 10 4 14 2 11 -6 -2 -7 -13 -11 -23 -10 -10 2 -16 1 -12 -3 7 -7
32 -13 61 -14 10 -1 17 -9 17 -21 0 -19 10 -23 63 -23 13 0 15 -3 6 -13 -14
-17 -23 -18 -13 -2 4 7 3 8 -5 4 -16 -10 -4 -26 14 -19 8 3 15 1 15 -5 0 -6 9
-8 20 -5 21 6 27 -6 10 -23 -7 -7 -2 -11 15 -12 55 -5 63 -7 59 -13 -2 -4 2
-10 8 -13 7 -3 2 -3 -12 0 -22 4 -23 4 -7 -6 10 -7 29 -9 42 -6 20 5 23 3 20
-13 -4 -21 19 -36 38 -24 6 4 8 0 4 -10 -3 -8 1 -21 9 -27 8 -7 14 -9 14 -5 0
4 8 1 17 -6 11 -10 14 -10 9 -1 -4 6 -2 12 3 12 10 0 15 -14 12 -32 0 -5 7 -8
17 -8 21 -1 63 -30 42 -30 -7 0 -10 -3 -7 -6 4 -4 14 -1 24 7 11 9 14 10 9 2
-5 -9 0 -13 13 -13 19 0 22 -4 20 -27 0 -5 10 -10 23 -13 13 -3 23 -11 23 -17
0 -6 4 -15 9 -20 5 -5 6 -3 2 5 -4 6 -2 12 4 12 6 0 8 6 4 13 -4 7 -3 8 2 4 5
-5 9 -16 9 -25 0 -12 7 -16 22 -14 13 2 23 -2 23 -7 0 -6 -4 -11 -10 -11 -5 0
-10 -4 -10 -9 0 -4 8 -8 18 -8 42 0 51 -4 46 -17 -3 -8 0 -17 7 -22 8 -4 10
-3 5 4 -10 17 3 15 20 -3 9 -8 12 -21 9 -27 -4 -7 0 -5 8 5 19 23 30 22 22 -4
-6 -19 -5 -20 17 -8 21 11 22 11 9 -5 -12 -14 -12 -16 4 -10 15 6 17 3 13 -12
-4 -17 0 -20 26 -18 36 3 51 -5 51 -26 0 -8 6 -16 13 -16 6 -1 17 -2 23 -3 6
0 9 -8 5 -16 -4 -11 2 -15 20 -15 16 0 24 -5 22 -14 -2 -8 2 -14 7 -13 6 1 9
8 9 14 -1 7 2 10 7 7 5 -3 9 -12 9 -20 0 -13 12 -18 33 -15 4 0 7 -8 7 -19 0
-15 7 -20 25 -20 14 0 27 1 30 3 2 1 12 -8 21 -21 9 -13 22 -21 29 -19 8 4 12
-3 11 -16 -1 -13 5 -23 14 -23 8 -1 20 -2 27 -3 7 0 10 -7 7 -14 -5 -13 5 -17
49 -18 10 0 17 -8 17 -20 0 -17 10 -23 32 -20 4 0 10 -9 13 -20 6 -17 9 -18
23 -7 12 10 14 10 8 0 -4 -7 -2 -12 4 -12 6 0 9 -4 6 -8 -3 -5 1 -9 9 -9 8 0
12 4 9 9 -3 4 0 8 5 8 6 0 11 -9 11 -20 0 -14 7 -20 21 -20 11 0 17 -4 14 -10
-3 -5 -2 -10 4 -10 5 0 11 5 13 12 3 7 7 5 11 -6 4 -9 3 -15 -2 -11 -5 3 -12
1 -16 -5 -4 -6 10 -10 37 -11 24 0 37 -3 31 -6 -17 -6 10 -34 35 -36 14 -1 18
-7 14 -20 -4 -17 -1 -19 22 -15 21 4 26 2 21 -10 -4 -12 -3 -12 9 -3 10 8 16
9 21 1 3 -5 1 -10 -6 -10 -18 0 -4 -11 18 -14 10 -2 17 -10 17 -19 -1 -9 5
-18 13 -21 8 -3 11 -1 8 4 -3 6 -1 10 4 10 6 0 11 -4 11 -10 0 -5 9 -10 19
-10 11 0 23 -5 26 -10 3 -6 1 -10 -4 -10 -6 0 -11 -4 -11 -9 0 -4 11 -6 25 -3
16 3 25 0 25 -8 0 -7 7 -10 18 -6 14 5 13 3 -3 -10 -20 -16 -20 -16 3 -11 12
3 22 1 22 -5 0 -6 9 -8 21 -5 13 3 19 1 16 -6 -2 -7 -9 -12 -15 -12 -5 0 -14
-3 -18 -7 -3 -4 3 -6 14 -3 12 2 24 0 27 -4 2 -5 17 -7 32 -5 16 2 22 1 16 -2
-18 -8 -16 -37 2 -31 8 4 17 2 21 -4 3 -5 14 -7 25 -4 14 5 17 3 13 -9 -3 -9
-10 -14 -14 -11 -5 3 -11 1 -14 -4 -3 -4 2 -8 12 -8 53 0 62 -4 62 -24 0 -11
4 -17 10 -14 6 4 16 2 23 -3 7 -5 20 -8 30 -7 9 2 15 -1 11 -6 -3 -5 -9 -7
-14 -4 -5 3 -11 1 -14 -4 -4 -5 12 -12 34 -16 30 -5 40 -11 38 -23 -2 -11 4
-17 17 -17 12 0 20 -6 19 -16 -1 -9 4 -16 10 -17 6 -1 24 -3 41 -5 22 -2 30
-8 30 -23 0 -13 6 -18 18 -16 12 2 17 -4 18 -20 1 -17 3 -18 6 -5 5 20 19 22
29 5 4 -7 3 -8 -4 -4 -7 4 -12 2 -12 -3 0 -6 12 -11 26 -11 17 0 28 -6 31 -20
3 -11 14 -20 25 -20 11 0 16 -5 13 -10 -4 -7 3 -9 19 -6 15 3 24 1 21 -5 -4
-5 -11 -7 -16 -4 -5 4 -9 1 -9 -4 0 -10 20 -15 48 -12 11 2 16 -11 13 -32 -1
-7 32 -12 54 -7 6 1 4 -4 -2 -11 -16 -16 -17 -29 -2 -29 5 0 8 4 5 9 -3 5 1
11 9 14 9 4 12 1 8 -9 -4 -10 2 -14 20 -14 17 0 28 -7 32 -20 4 -11 11 -18 16
-15 5 4 14 -6 19 -20 6 -15 15 -23 21 -19 8 4 7 9 -2 15 -12 7 -12 9 -1 9 8 0
16 -9 19 -21 4 -16 8 -17 14 -7 7 10 9 11 9 0 0 -7 4 -11 9 -7 6 3 8 -3 6 -13
-3 -16 2 -19 25 -17 23 2 27 -1 22 -18 -3 -14 -1 -18 6 -13 7 4 12 2 12 -4 0
-8 9 -10 25 -6 19 5 23 3 19 -9 -3 -8 -11 -12 -17 -8 -6 3 -7 1 -3 -6 4 -6 12
-9 17 -5 5 3 17 0 26 -8 9 -7 19 -12 22 -10 3 1 6 -4 6 -10 0 -7 9 -13 20 -13
14 0 20 -6 19 -21 -1 -15 4 -20 20 -19 26 3 58 -13 51 -24 -8 -15 28 -23 38
-9 6 9 7 6 4 -10 -3 -13 0 -25 6 -27 12 -5 54 -13 71 -14 6 -1 2 -7 -8 -14
-15 -11 -14 -13 11 -16 15 -1 34 -3 40 -4 9 0 10 -4 2 -14 -9 -10 -4 -15 22
-20 19 -4 37 -6 42 -5 4 1 7 -7 7 -18 0 -13 7 -20 20 -20 13 0 20 -7 20 -20 0
-11 3 -19 8 -19 4 1 21 1 39 0 26 -1 31 -5 28 -21 -3 -16 2 -20 21 -20 18 0
24 -5 24 -22 0 -19 2 -20 10 -8 6 10 10 11 10 3 0 -8 13 -13 33 -13 17 0 28
-4 22 -8 -19 -13 -14 -28 11 -30 46 -3 53 -5 48 -14 -3 -5 -10 -6 -15 -3 -5 3
-6 -1 -3 -9 7 -19 20 -21 27 -3 4 9 6 9 6 0 1 -7 10 -13 21 -13 11 0 20 -5 20
-11 0 -5 -4 -8 -9 -4 -5 3 -12 2 -15 -3 -3 -5 0 -9 7 -10 28 -2 52 -9 47 -14
-13 -13 23 -34 53 -33 22 1 34 -3 34 -12 0 -16 -14 -17 -20 0 -4 9 -6 9 -6 0
-1 -15 18 -27 44 -28 13 0 19 -6 17 -17 -2 -11 3 -15 15 -13 10 1 27 -5 37
-14 11 -9 16 -10 12 -3 -4 6 -2 12 3 12 18 0 12 -28 -6 -33 -10 -3 -1 -5 20
-6 30 -1 37 -5 37 -22 0 -16 4 -19 20 -14 12 4 20 2 20 -5 0 -7 8 -9 22 -4 19
6 21 4 11 -7 -8 -11 -8 -17 2 -26 8 -7 15 -9 17 -5 2 5 14 5 28 1 15 -4 18 -7
8 -8 -11 -1 -15 -6 -12 -15 3 -8 14 -13 25 -11 10 2 21 -1 24 -6 4 -5 10 -7
15 -4 4 3 6 -3 3 -13 -4 -16 1 -19 26 -17 33 2 38 -4 19 -23 -9 -9 -8 -12 8
-13 10 -1 23 -1 28 0 4 1 14 -3 21 -9 10 -8 15 -7 19 2 4 9 5 9 5 -2 -2 -31 1
-39 15 -34 8 3 19 -3 26 -15 6 -12 17 -21 24 -21 18 0 28 -27 13 -34 -7 -3 -6
-5 3 -5 8 1 30 1 49 0 28 -1 32 -3 21 -16 -10 -12 -9 -16 5 -21 10 -4 21 -1
26 7 7 11 9 10 9 -4 0 -12 4 -16 13 -11 8 5 8 2 -2 -9 -7 -9 -11 -18 -7 -18 3
-1 11 -3 16 -4 6 -1 21 -3 35 -4 18 -1 25 -7 25 -22 0 -16 5 -20 20 -16 19 5
25 -6 21 -38 -1 -5 5 -2 12 8 17 20 28 23 21 3 -3 -7 2 -16 10 -19 9 -4 16 -2
16 4 0 6 5 7 10 4 8 -5 7 -12 -2 -23 -10 -12 -10 -14 -1 -8 8 4 13 2 13 -4 0
-7 6 -10 13 -7 6 2 21 1 32 -4 18 -7 18 -8 2 -8 -10 -1 -15 -6 -12 -12 4 -6
13 -8 21 -5 7 3 16 1 20 -5 3 -6 12 -8 20 -5 8 3 13 2 12 -2 -3 -16 15 -40 27
-36 7 3 16 -4 20 -15 6 -21 16 -24 65 -22 24 0 24 0 -5 -14 -27 -13 -28 -14
-7 -15 12 0 22 -4 22 -9 0 -4 12 -6 28 -3 24 5 26 4 13 -11 -11 -14 -11 -17 0
-18 8 -1 21 -2 29 -3 8 0 14 -9 14 -18 -2 -23 13 -23 19 0 3 12 5 11 6 -6 0
-13 6 -20 11 -17 5 3 10 1 10 -6 0 -8 5 -7 16 2 15 12 16 11 10 -9 -6 -17 -3
-22 11 -23 34 -1 56 -8 67 -20 8 -9 8 -10 -1 -5 -7 4 -21 2 -30 -4 -15 -9 -15
-11 -2 -7 9 3 27 -2 40 -10 12 -9 19 -11 15 -5 -4 7 -2 12 3 12 6 0 11 -9 11
-20 0 -18 20 -26 52 -21 5 0 8 -4 8 -9 0 -6 -5 -10 -11 -10 -18 0 0 -19 19
-19 43 -1 52 -5 52 -23 0 -12 6 -18 18 -16 9 2 16 -3 15 -9 -2 -7 2 -13 8 -13
5 0 8 -4 5 -8 -2 -4 9 -9 27 -10 38 -3 46 -10 27 -22 -11 -7 -11 -10 -2 -11 6
-1 17 -3 22 -4 6 -1 16 -3 24 -4 8 0 17 -10 21 -20 4 -12 12 -18 21 -14 12 4
19 -7 15 -29 0 -4 6 -5 14 -2 8 4 15 1 15 -6 0 -6 4 -8 10 -5 5 3 18 1 27 -4
10 -6 14 -11 9 -11 -5 0 -3 -6 4 -14 6 -8 18 -12 26 -9 10 4 13 0 8 -13 -5
-18 -5 -18 6 0 10 15 14 16 21 5 5 -8 3 -17 -4 -21 -10 -7 30 -13 56 -9 4 0 7
-4 7 -9 0 -6 -5 -10 -11 -10 -5 0 -7 -5 -4 -10 4 -6 11 -8 16 -4 15 9 38 -15
32 -34 -4 -14 -3 -15 5 -2 6 8 8 18 6 22 -3 4 0 8 5 8 6 0 11 -9 11 -20 0 -14
7 -20 24 -20 20 0 23 -4 19 -21 -5 -18 -3 -20 16 -14 12 4 22 2 22 -4 1 -6 2
-15 3 -21 0 -5 4 -10 9 -10 4 0 10 0 13 0 4 0 0 7 -7 17 -12 14 -12 16 1 11 8
-2 17 -15 21 -29 4 -13 7 -19 8 -12 2 21 31 2 31 -19 0 -18 2 -19 17 -7 13 11
15 11 9 1 -6 -10 -2 -13 17 -10 15 1 26 -1 26 -7 0 -5 -7 -9 -15 -7 -8 2 -14
-1 -14 -6 0 -8 7 -10 50 -14 12 -1 23 -12 26 -23 4 -17 12 -21 38 -20 21 1 33
-3 33 -11 0 -9 -4 -11 -12 -4 -8 7 -12 5 -12 -5 0 -13 30 -21 60 -16 4 0 7 -8
7 -20 0 -15 5 -19 15 -15 16 6 39 -27 27 -39 -4 -4 0 -6 8 -5 34 5 71 -1 65
-10 -3 -5 0 -10 7 -10 9 0 9 -3 -2 -10 -12 -8 -9 -10 13 -10 21 0 27 -5 27
-22 0 -19 2 -20 11 -8 8 11 12 12 16 3 2 -7 15 -13 28 -13 18 0 22 -4 18 -20
-4 -16 -1 -20 18 -18 15 2 23 -2 22 -9 -2 -7 2 -13 8 -13 5 0 8 -4 5 -8 -3 -5
1 -9 9 -9 8 0 12 4 9 8 -2 4 9 1 25 -7 21 -11 28 -20 24 -31 -5 -12 -2 -15 10
-10 9 3 19 2 22 -4 4 -5 12 -6 18 -2 7 4 5 -1 -3 -12 -14 -16 -13 -17 8 -11
14 5 22 3 22 -4 0 -7 8 -9 20 -5 21 7 27 -4 10 -21 -7 -7 -7 -11 2 -11 28 -1
43 -9 50 -25 6 -15 33 -24 61 -19 4 0 7 -4 7 -10 0 -6 -6 -9 -13 -6 -8 3 -14
0 -14 -7 0 -7 14 -11 34 -11 18 1 34 -2 34 -7 1 -4 3 -12 4 -18 1 -5 3 -13 4
-16 0 -4 9 0 18 7 11 10 14 10 9 2 -4 -8 -2 -13 4 -13 6 0 8 -5 4 -11 -4 -7 1
-7 16 1 12 7 20 8 17 2 -4 -5 1 -18 9 -28 9 -10 13 -13 9 -6 -3 6 -1 12 4 12
10 0 15 -14 12 -32 0 -5 9 -9 22 -10 12 0 27 -2 34 -2 7 -1 18 -7 25 -15 11
-11 11 -13 -1 -6 -9 5 -12 3 -9 -6 3 -8 11 -13 17 -12 6 2 11 -3 11 -10 0 -9
2 -9 8 0 5 8 13 9 22 3 10 -7 11 -10 3 -10 -7 0 -13 -4 -13 -10 0 -5 11 -10
25 -10 16 0 25 -5 23 -13 -2 -7 1 -12 7 -12 5 0 9 7 8 15 -1 8 3 4 10 -10 7
-16 19 -24 30 -22 12 2 17 -3 17 -17 0 -16 6 -21 29 -21 16 0 35 -8 42 -17 8
-9 9 -14 4 -11 -6 4 -17 2 -25 -3 -13 -9 -13 -10 0 -8 43 4 70 -2 70 -17 0 -9
-5 -12 -12 -8 -7 5 -8 3 -4 -5 5 -7 14 -10 22 -7 17 6 46 -22 38 -36 -4 -7 -2
-8 5 -4 6 4 9 11 6 16 -3 5 -1 12 5 15 6 4 10 3 9 -2 -4 -23 3 -33 25 -33 17
0 23 -5 22 -17 -1 -12 5 -17 17 -15 9 2 17 -2 17 -8 0 -6 6 -8 13 -4 8 5 8 2
-2 -9 -12 -15 -11 -17 8 -18 11 -1 26 -3 31 -4 6 -1 15 -3 20 -4 6 0 10 -11
10 -22 0 -18 2 -19 15 -9 12 10 16 8 24 -11 5 -13 7 -27 4 -31 -2 -4 3 -5 12
-2 25 10 65 -4 59 -21 -5 -11 1 -15 19 -15 14 0 29 -5 33 -12 4 -6 3 -8 -3 -5
-5 3 -10 0 -10 -6 0 -7 14 -14 31 -15 17 -2 35 -8 41 -14 7 -8 5 -9 -7 -5 -10
3 -20 1 -24 -6 -4 -7 -4 -9 1 -5 4 4 16 3 26 -2 10 -6 29 -11 43 -12 19 -2 22
-5 14 -15 -10 -12 -5 -15 18 -12 4 0 15 -12 25 -28 10 -15 19 -23 19 -17 0 5
-5 15 -12 22 -9 9 -9 12 1 12 7 0 15 -9 18 -21 4 -14 12 -19 24 -16 11 3 22 1
25 -4 3 -5 0 -9 -7 -9 -8 0 -9 -3 0 -13 6 -8 24 -13 39 -12 17 1 29 -3 29 -11
0 -7 -9 -11 -19 -9 -11 2 -16 0 -12 -6 3 -6 9 -8 12 -5 3 4 16 -1 30 -10 13
-9 21 -11 18 -5 -12 19 20 12 39 -9 10 -11 29 -20 42 -20 20 0 23 -4 18 -22
-4 -16 -3 -19 3 -9 5 7 12 9 14 5 3 -5 3 -4 2 3 -2 7 2 15 8 19 7 4 8 3 4 -4
-4 -7 -1 -12 9 -12 10 0 13 5 9 12 -5 7 -3 8 6 3 10 -6 9 -11 -5 -21 -15 -11
2 -13 108 -13 88 1 129 5 136 13 8 9 7 13 -4 13 -8 0 -12 -3 -10 -7 2 -3 -6
-7 -18 -7 -22 -2 -22 -2 -2 10 11 6 34 13 50 14 65 5 75 8 72 21 -2 14 11 20
55 26 10 1 21 6 25 10 5 4 3 7 -2 6 -6 -1 -17 -2 -25 -1 -13 1 -13 3 0 10 8 6
18 7 22 5 8 -5 12 11 8 31 -1 5 2 7 6 3 13 -13 64 32 64 57 0 17 6 25 23 27
19 3 22 9 21 41 l0 39 18 -24 c18 -22 19 -22 9 -1 -14 27 -14 36 -1 28 6 -4
10 11 10 39 0 32 5 48 18 56 12 8 12 10 2 7 -13 -4 -16 5 -17 41 0 41 1 43 12
22 10 -19 13 -20 18 -6 4 10 3 15 -2 12 -5 -3 -12 1 -15 9 -7 20 -6 31 3 28 4
-1 8 5 8 12 0 10 -4 12 -12 5 -9 -8 -13 5 -14 52 -1 65 -15 94 -31 68 -7 -10
-9 -1 -7 32 1 25 0 46 -3 46 -20 -2 -40 3 -39 10 5 29 -2 40 -23 35 -23 -5
-23 -5 -3 11 19 15 19 16 1 9 -16 -5 -18 -3 -12 12 4 11 4 16 0 12 -4 -4 -18
5 -31 19 -12 14 -23 20 -23 15 0 -6 -7 -8 -16 -4 -11 4 -12 8 -4 13 13 8 -10
21 -49 26 -13 1 -26 6 -30 10 -3 4 4 4 17 1 15 -3 22 -1 22 9 0 8 -3 13 -8 13
-4 -1 -22 -1 -39 0 -27 1 -33 5 -33 22 0 16 -5 20 -20 16 -13 -3 -20 0 -20 9
0 8 -6 14 -12 14 -9 0 -8 4 2 11 12 8 10 9 -8 4 -13 -4 -22 -2 -22 5 0 6 -4 8
-10 5 -5 -3 -10 -1 -10 5 0 6 -4 8 -10 5 -5 -3 -10 1 -10 10 0 11 -5 15 -15
11 -14 -5 -19 3 -12 21 1 4 -11 10 -28 13 -23 4 -29 10 -27 25 2 17 0 16 -13
-5 -15 -23 -15 -23 -10 -3 6 21 -2 28 -28 24 -11 -2 -28 49 -21 61 5 7 2 8 -5
3 -8 -4 -7 2 3 17 9 14 13 28 9 31 -3 4 3 7 15 7 17 0 22 6 22 28 0 15 5 34
11 42 8 12 9 10 4 -7 -4 -16 -2 -23 7 -23 8 0 14 8 15 18 3 40 11 57 26 54 8
-1 15 3 14 10 -1 31 4 48 14 48 5 0 7 -4 4 -10 -3 -5 -1 -10 5 -10 7 0 10 7 6
15 -3 8 -1 15 5 15 6 0 8 4 5 9 -4 5 0 12 6 14 10 4 10 6 1 6 -7 1 -10 8 -6
17 5 14 8 13 20 -7 8 -13 12 -16 9 -7 -3 10 -1 20 5 23 5 4 7 10 4 15 -3 4 -1
19 4 32 7 17 10 18 10 6 1 -28 21 -21 21 8 0 14 4 23 10 19 6 -3 10 -1 10 4 0
6 -5 11 -11 11 -5 0 -7 5 -3 12 5 8 11 6 19 -5 10 -14 12 -12 13 15 1 34 21
54 35 35 6 -8 7 -3 4 11 -4 17 0 26 18 34 13 6 23 20 24 34 3 51 4 54 16 44
12 -10 25 -4 25 12 0 5 -4 7 -9 3 -5 -3 -13 0 -17 6 -4 7 -3 9 4 5 6 -3 14 -1
17 5 4 5 14 8 22 5 8 -3 11 -1 8 5 -4 5 -1 16 5 24 7 8 9 15 6 15 -4 0 -2 9 4
20 6 11 16 19 22 17 11 -2 13 2 17 34 0 6 7 9 14 6 12 -5 17 9 20 60 1 15 5
19 12 13 16 -14 30 2 30 34 1 17 7 31 15 34 12 3 12 2 2 -6 -11 -8 -11 -10 0
-15 10 -3 15 4 16 25 3 40 11 51 29 44 11 -4 13 -2 10 9 -4 8 -2 17 3 20 5 3
7 15 5 26 -4 17 -2 19 10 9 18 -15 20 -24 3 -14 -7 4 -8 3 -4 -5 10 -15 25 -5
25 17 1 42 5 52 20 50 10 -2 16 6 18 26 1 16 10 36 19 45 9 9 14 10 10 4 -4
-7 -3 -13 2 -13 16 0 21 27 9 40 -9 10 -9 11 1 6 6 -4 12 -2 12 4 0 6 4 9 9 6
5 -3 12 5 15 19 4 14 12 24 18 22 7 -1 12 3 13 8 1 19 16 35 28 29 7 -3 3 2
-7 10 -11 9 -17 19 -13 22 4 4 13 2 20 -4 10 -9 14 -9 15 1 2 36 22 88 22 59
0 -7 4 -12 9 -12 6 0 11 17 13 38 2 29 7 36 21 34 13 -2 17 4 17 29 0 26 2 29
14 20 17 -15 25 -4 28 38 3 36 13 48 24 30 4 -7 3 -9 -3 -6 -5 3 -10 0 -10 -8
0 -11 4 -12 13 -4 8 6 13 14 12 17 -3 25 4 52 13 52 5 0 7 -4 4 -10 -3 -5 0
-7 8 -4 8 3 14 11 14 17 -1 39 4 67 13 67 5 0 7 -6 4 -14 -3 -8 -1 -17 5 -21
7 -4 8 0 4 11 -4 11 -2 15 4 11 7 -4 10 4 8 23 -1 17 3 31 11 34 8 3 14 0 15
-7 0 -7 4 -3 8 8 5 11 7 31 5 45 -4 21 -3 22 6 8 12 -20 30 -24 30 -7 0 5 -4
8 -8 5 -5 -3 -9 1 -9 8 0 8 6 12 13 9 9 -3 11 2 7 16 -5 19 4 26 29 22 5 0 7
2 6 7 -1 4 1 23 5 42 l8 35 15 -25 c8 -14 14 -18 13 -10 -5 49 2 70 21 70 15
0 20 7 20 25 0 18 4 23 15 19 9 -4 15 -1 15 7 0 7 8 21 18 32 9 11 11 17 5 13
-8 -4 -13 -1 -13 8 0 9 3 15 8 15 22 -4 30 3 27 21 -3 14 2 20 13 20 9 0 22
11 29 25 7 16 7 23 1 19 -6 -4 -8 -1 -6 7 3 8 13 13 23 11 9 -2 14 1 11 7 -4
5 -2 12 4 16 6 4 8 11 5 16 -4 5 -1 9 6 9 8 0 7 5 -2 18 -13 15 -12 16 4 3 22
-17 29 -11 30 27 1 23 6 29 19 27 14 -3 18 3 18 24 0 29 21 57 33 44 4 -3 7 5
7 18 0 13 5 31 11 39 9 12 10 12 5 -4 -5 -16 -4 -17 8 -6 9 6 15 15 14 18 -4
33 4 92 13 92 6 0 8 -7 5 -16 -6 -15 -4 -15 10 -3 10 8 12 15 5 17 -6 2 -11 8
-11 13 0 6 5 7 10 4 16 -10 11 6 -8 23 -9 10 -13 14 -8 10 15 -12 23 -9 23 7
0 8 -4 15 -9 15 -5 0 -6 6 -1 13 13 20 12 78 -1 70 -8 -5 -8 -3 0 8 5 8 10 21
9 29 -1 8 -3 21 -3 28 -1 6 -7 12 -13 12 -8 0 -8 -4 -1 -13 7 -8 6 -18 -4 -31
-8 -11 -14 -15 -14 -10 0 6 5 15 12 22 9 9 9 12 0 12 -7 0 -12 6 -11 13 5 38
-2 97 -11 92 -5 -3 -10 -1 -10 5 0 6 -4 8 -10 5 -6 -4 -10 5 -10 20 0 14 -4
24 -8 21 -5 -3 -9 1 -9 9 0 8 4 12 9 9 4 -3 8 0 8 5 0 6 -9 11 -20 11 -13 0
-20 7 -20 20 0 13 -7 20 -20 20 -13 0 -20 7 -20 20 0 14 -6 20 -17 18 -12 -2
-19 4 -21 20 -2 12 -7 22 -12 22 -5 0 -7 -7 -4 -15 4 -8 1 -15 -5 -15 -6 0
-10 3 -10 8 3 19 -2 29 -16 29 -8 0 -15 -4 -15 -9 0 -5 -5 -6 -11 -2 -8 4 -8
9 0 17 6 6 11 16 11 22 0 5 -5 3 -10 -5 -6 -10 -10 -11 -10 -2 0 6 -9 12 -21
12 -15 0 -19 5 -15 15 5 14 -17 21 -47 16 -5 -1 -5 9 -2 21 7 23 7 23 -10 3
-12 -14 -15 -15 -12 -4 3 9 1 22 -4 30 -7 11 -9 11 -9 1 0 -8 -8 -12 -17 -10
-10 2 -18 10 -18 17 0 14 -51 34 -65 26 -4 -2 -7 2 -7 10 0 18 9 19 23 5 7 -7
11 -6 11 4 0 8 -3 15 -6 14 -3 0 -21 0 -40 1 -29 1 -32 3 -21 16 11 13 10 14
-5 9 -13 -5 -16 -4 -11 4 5 8 -1 12 -18 12 -27 0 -35 14 -13 24 6 3 1 3 -12 0
-16 -4 -21 -3 -17 5 5 7 -4 11 -25 11 -25 0 -29 3 -20 13 11 14 5 27 -11 27
-5 0 -6 -6 -2 -12 5 -8 0 -7 -10 2 -10 8 -26 15 -35 15 -9 0 -16 6 -16 13 0
19 -28 33 -37 19 -5 -7 -8 -1 -8 16 0 16 -5 27 -12 26 -28 -3 -48 2 -48 12 0
5 5 7 10 4 6 -3 10 -1 10 5 0 7 -7 9 -15 6 -9 -3 -18 1 -22 10 -5 12 -7 13
-14 3 -6 -10 -10 -7 -17 10 -6 16 -18 25 -38 27 -30 3 -58 30 -50 50 2 6 -1
11 -7 12 -7 1 -23 4 -37 6 -14 2 -28 5 -31 5 -4 1 -6 9 -5 19 1 13 -8 18 -36
20 -26 2 -35 7 -32 16 3 9 -7 18 -25 24 -17 6 -31 14 -31 17 0 3 5 3 10 0 6
-3 10 -2 10 3 0 5 -9 12 -20 15 -13 3 -18 1 -14 -6 3 -7 0 -5 -8 4 -7 9 -19
14 -25 12 -8 -3 -13 4 -13 16 0 13 -5 18 -13 15 -7 -2 -27 3 -43 12 -24 13
-25 15 -6 11 15 -4 22 -1 19 6 -2 7 -14 10 -27 9 -18 -3 -21 0 -17 13 4 9 3
14 -3 10 -6 -3 -10 -1 -10 4 0 6 -6 11 -13 11 -9 0 -11 12 -9 40 3 31 8 40 23
40 14 0 19 7 19 26 0 20 4 24 18 19 16 -4 19 0 20 26 0 18 6 37 13 43 9 8 10
7 5 -4 -4 -8 -1 -6 8 4 8 10 13 23 10 27 -3 5 0 9 6 9 6 0 9 4 6 8 -2 4 0 14
6 22 8 12 9 12 4 -2 -3 -10 -1 -20 3 -23 10 -6 24 42 16 54 -5 9 23 26 37 23
4 -1 5 4 3 11 -3 6 0 19 5 27 9 13 11 13 21 0 10 -13 10 -13 6 0 -6 19 18 54
31 46 5 -3 9 1 9 9 0 10 -5 11 -19 4 -12 -6 -18 -6 -18 0 0 6 11 13 24 17 16
4 23 11 19 21 -4 9 2 16 16 20 12 3 21 10 20 17 -4 21 13 66 23 60 5 -3 4 -11
-3 -20 -7 -8 -7 -14 -1 -14 12 0 22 24 22 56 0 21 3 23 19 15 17 -9 19 -7 17
19 -1 16 1 27 5 24 4 -2 10 3 13 12 3 8 2 12 -4 9 -6 -3 -10 -1 -10 6 0 7 8 9
20 6 17 -4 20 -1 18 16 -2 16 3 23 18 25 16 2 20 9 18 32 -2 32 10 48 22 29 5
-8 3 -9 -6 -4 -9 5 -11 4 -6 -3 10 -16 27 -15 25 1 -4 23 13 67 26 67 15 0 23
17 20 47 -1 18 1 20 12 12 7 -6 10 -16 6 -22 -3 -6 -1 -7 6 -3 6 4 11 13 10
19 -3 23 1 38 9 33 4 -2 14 0 22 5 12 8 11 9 -4 7 -10 -2 -21 2 -23 9 -3 7 3
9 16 6 17 -4 21 -1 21 20 0 14 5 29 12 33 7 4 8 3 4 -4 -5 -8 -2 -10 8 -6 19
7 21 24 4 24 -9 0 -9 3 -2 8 6 4 13 15 17 25 4 10 11 16 16 13 5 -3 14 9 20
27 9 23 14 28 20 19 7 -11 9 -10 14 3 4 9 3 13 -3 10 -6 -3 -10 -2 -10 4 0 5
5 11 10 13 6 2 12 13 13 26 1 23 17 31 17 10 0 -7 5 -5 11 5 5 9 7 22 4 27 -3
6 -1 10 4 10 6 0 11 7 11 15 0 7 7 18 17 23 11 6 14 16 9 28 -4 10 -4 15 0 12
12 -12 44 11 38 27 -4 10 0 15 15 15 21 0 26 14 23 65 0 11 2 14 5 7 7 -18 33
5 33 30 0 10 4 17 8 14 17 -10 33 12 34 48 1 22 4 32 9 24 4 -6 5 -16 3 -20
-3 -4 0 -8 6 -8 7 0 10 7 6 15 -3 8 -1 15 4 15 6 0 10 9 10 19 0 11 9 23 21
26 11 4 18 9 15 12 -3 4 -1 12 5 19 6 8 9 20 5 29 -3 8 -2 14 2 13 4 -1 15 2
25 7 14 6 15 10 6 21 -9 11 -7 14 10 14 19 0 26 10 22 33 0 4 7 7 17 7 11 0
18 8 19 22 1 11 8 25 15 29 11 7 11 9 0 9 -7 0 -10 5 -7 11 4 6 14 8 22 5 11
-5 14 -1 10 13 -3 14 2 21 19 25 20 5 24 13 24 41 0 25 4 35 16 35 9 0 12 -5
8 -12 -4 -7 -3 -8 4 -4 7 4 12 21 12 37 0 27 3 30 23 23 22 -7 22 -6 -2 13
-18 15 -20 20 -8 20 9 0 14 -4 11 -9 -3 -4 0 -8 5 -8 6 0 11 14 11 30 0 28 20
45 20 18 0 -7 5 -5 11 5 5 9 7 22 4 28 -4 6 2 13 14 16 11 3 18 9 15 14 -3 5
-10 6 -16 3 -7 -4 -8 -2 -4 4 4 6 14 8 23 5 13 -5 15 -1 11 20 -4 23 -2 27 17
27 17 0 22 5 21 23 -3 31 4 40 20 26 12 -10 13 -9 8 6 -6 14 -4 16 7 10 8 -4
11 -5 7 0 -4 4 -2 15 5 23 6 9 7 13 1 9 -6 -3 -11 0 -11 9 0 9 7 12 19 8 18
-5 23 4 18 35 -1 9 4 12 14 8 18 -7 31 8 16 18 -5 3 -10 12 -10 18 0 9 2 9 8
1 5 -8 13 -5 27 8 16 16 17 18 2 13 -10 -4 -17 -2 -17 4 0 10 14 15 33 12 4 0
7 20 7 47 0 34 3 43 10 32 8 -13 10 -13 10 2 0 9 -4 20 -10 23 -5 3 -10 12 -9
18 0 9 2 8 6 -1 2 -6 10 -9 15 -6 6 4 8 3 5 -2 -3 -6 -2 -16 3 -24 5 -9 8 -2
7 21 -2 22 -7 33 -15 31 -8 -1 -11 2 -7 8 3 6 11 8 16 4 6 -3 8 34 7 95 -1 56
-6 101 -11 101 -5 0 -4 6 2 14 8 10 9 16 1 21 -6 4 -9 1 -8 -6 2 -6 -2 -13 -9
-16 -7 -3 -11 3 -9 14 5 28 -12 66 -28 60 -8 -3 -13 1 -13 11 0 59 -4 71 -18
66 -16 -7 -39 39 -29 59 3 7 -2 3 -10 -7 -14 -18 -21 -15 -17 7 1 4 -10 12
-24 17 -14 5 -24 15 -23 22 2 7 -5 12 -14 12 -10 -1 -18 3 -18 8 0 5 -10 6
-22 3 -22 -7 -22 -6 -4 8 18 13 17 15 -18 21 -27 5 -36 11 -32 22 5 13 -5 18
-31 15 -12 -2 -17 11 -14 32 0 4 -7 7 -17 7 -10 0 -24 6 -31 13 -9 7 -12 8 -7
0 4 -7 -1 -9 -14 -6 -19 5 -20 6 -3 19 10 8 14 14 8 13 -5 -1 -23 -1 -40 0
-23 1 -27 3 -15 11 11 7 11 10 2 10 -7 0 -10 4 -7 10 6 9 -21 15 -51 11 -7 -1
-11 6 -10 16 0 11 -8 19 -25 23 -18 3 -25 11 -23 23 1 9 -2 17 -7 17 -5 0 -9
-5 -9 -12 0 -6 -8 -1 -19 10 -19 22 -37 30 -26 12 3 -5 1 -10 -4 -10 -6 0 -11
9 -11 20 0 13 -7 20 -20 20 -14 0 -20 7 -20 21 0 18 -2 19 -15 9 -12 -10 -15
-10 -15 0 0 7 -8 10 -20 7 -10 -3 -19 -2 -18 2 3 30 -4 43 -22 38 -11 -3 -25
2 -32 11 -11 13 -11 14 2 7 13 -8 13 -6 2 7 -7 9 -22 15 -32 13 -14 -3 -18 1
-15 15 2 12 -1 17 -9 14 -8 -3 -20 2 -29 10 -12 12 -17 13 -20 3 -3 -6 -6 -1
-6 12 -1 18 -5 22 -21 18 -18 -5 -25 5 -22 34 0 3 -10 6 -24 7 -49 4 -54 6
-54 24 0 10 -3 17 -7 17 -21 -3 -66 4 -50 8 20 5 22 19 5 29 -7 5 -8 2 -3 -7
6 -11 5 -11 -5 -2 -7 6 -19 9 -26 6 -8 -3 -14 0 -14 7 0 6 -5 8 -12 4 -9 -5
-9 -2 1 9 14 18 9 21 -30 18 -11 -1 -16 5 -15 16 0 10 -6 18 -14 18 -17 0 -41
26 -34 37 3 5 0 8 -5 8 -14 0 -14 -13 -1 -26 7 -7 6 -11 -5 -11 -8 0 -15 9
-15 19 0 11 -7 18 -20 18 -11 0 -20 5 -20 11 0 6 -8 8 -17 5 -15 -5 -15 -4 1
9 19 14 18 15 -15 16 -19 1 -37 1 -41 0 -5 0 -7 2 -7 7 4 22 -3 32 -22 32 -15
0 -19 5 -15 15 3 10 -3 17 -19 21 -13 3 -27 14 -30 23 -3 9 -17 18 -32 19 -44
4 -62 8 -69 15 -4 3 3 5 15 2 13 -2 21 1 21 9 0 8 -10 13 -22 12 -16 -1 -22 4
-20 14 3 12 1 13 -9 2 -16 -15 -29 -16 -29 -1 0 5 5 7 10 4 6 -3 10 -1 10 4 0
6 -4 12 -10 12 -5 1 -14 3 -20 4 -5 1 -14 3 -20 4 -5 0 -10 8 -10 16 0 8 -3
15 -7 16 -30 3 -59 11 -67 19 -6 6 -1 8 14 5 16 -3 20 -1 13 6 -5 5 -24 11
-42 12 -25 2 -31 6 -27 20 3 12 -2 17 -20 18 -39 2 -44 4 -44 12 0 4 0 10 0
13 0 4 6 1 13 -5 10 -8 14 -7 14 3 0 8 -8 13 -19 11 -10 -2 -18 0 -18 4 0 5
-8 8 -17 7 -11 0 -18 6 -17 15 1 10 -7 17 -20 17 -41 2 -60 9 -64 23 -3 11 -1
11 7 -1 10 -13 11 -13 11 0 0 13 1 13 11 0 9 -13 10 -13 6 0 -2 8 -9 16 -15
16 -7 1 -15 3 -19 4 -5 1 -15 3 -23 4 -8 0 -14 7 -13 14 3 11 -9 16 -29 13 -5
0 -8 4 -8 9 0 6 -9 10 -21 10 -11 0 -17 5 -14 10 4 6 11 7 17 4 7 -5 8 -2 4 5
-5 7 -13 10 -20 8 -6 -3 -25 2 -41 9 l-30 14 28 -4 c40 -5 19 11 -21 17 -33 5
-56 17 -34 17 7 0 12 5 12 10 0 14 -27 12 -33 -2 -3 -8 -6 -6 -6 4 -1 10 -4
17 -8 17 -22 -4 -33 3 -33 20 0 14 -5 18 -20 14 -16 -4 -20 0 -20 18 0 12 -3
19 -6 16 -12 -11 -46 14 -40 29 3 9 2 12 -5 9 -6 -4 -8 -14 -5 -22 4 -9 1 -13
-6 -10 -7 2 -12 12 -10 21 2 10 -3 16 -10 15 -28 -3 -38 2 -38 21 0 21 -20 29
-20 8 0 -8 -5 -6 -11 4 -5 10 -17 15 -27 12 -16 -5 -16 -5 1 6 9 6 17 16 17
23 0 8 -4 6 -11 -3 -8 -11 -12 -12 -16 -2 -2 6 -14 12 -25 12 -15 0 -19 5 -16
18 5 16 0 19 -28 17 -19 -1 -39 2 -46 7 -7 4 -9 8 -4 8 5 0 5 6 0 13 -5 7 -2
5 7 -5 16 -17 17 -17 24 -1 3 10 3 14 -1 10 -4 -4 -15 0 -25 9 -11 10 -19 12
-24 4 -9 -14 -25 -3 -25 19 0 14 -8 17 -36 16 -19 0 -38 3 -41 9 -3 5 -1 6 5
2 7 -4 12 -2 12 4 0 6 6 8 13 4 9 -5 9 -4 -1 7 -6 7 -24 13 -40 14 -20 0 -26
4 -24 18 2 14 -2 18 -20 15 -18 -2 -23 2 -22 18 1 13 -5 21 -15 21 -52 0 -61
4 -61 23 0 11 -3 19 -7 19 -21 -3 -32 3 -35 18 -2 10 -10 18 -18 19 -8 1 -25
2 -37 2 -13 1 -23 6 -23 11 0 6 10 8 21 6 12 -3 18 -1 15 3 -8 7 -14 9 -45 11
-11 0 -23 10 -26 22 -6 17 -9 18 -23 7 -9 -7 -13 -8 -9 -2 4 7 -1 18 -10 25
-9 8 -14 9 -10 3 3 -6 0 -11 -8 -11 -8 0 -12 4 -9 9 3 4 -1 8 -8 8 -9 0 -9 3
2 10 12 8 9 10 -12 10 -21 0 -28 5 -28 20 0 23 -10 25 -29 8 -11 -10 -13 -10
-7 0 7 12 -2 15 -34 13 -10 0 -11 1 -3 5 17 7 -9 34 -32 34 -11 0 -15 5 -12
14 6 16 -13 26 -49 26 -18 0 -24 5 -24 21 0 15 -5 20 -22 17 -19 -2 -23 1 -20
22 2 19 0 22 -10 12 -15 -15 -32 -16 -22 -1 4 7 -3 10 -17 9 -44 -4 -58 0 -63
18 -4 10 -13 19 -20 19 -8 0 -12 -6 -9 -14 3 -7 9 -10 14 -7 5 3 9 1 9 -5 0
-5 -9 -9 -19 -8 -11 0 -19 4 -19 7 2 25 -3 30 -22 20 -11 -6 -20 -7 -20 -2 0
10 -71 9 -88 -2 -7 -4 -12 -3 -12 3 0 5 -9 8 -20 5 -11 -2 -30 -6 -41 -9 -33
-7 -37 -17 -5 -11 21 4 26 2 18 -6 -5 -5 -32 -10 -59 -11 -54 0 -66 -4 -57
-18 4 -6 10 -6 18 0 9 8 13 7 13 -4 0 -8 -4 -12 -8 -9 -4 2 -10 1 -13 -4 -3
-5 -20 -6 -38 -4 -28 4 -31 3 -21 -10 13 -15 8 -28 -9 -28 -5 0 -7 4 -3 9 3 5
0 13 -6 17 -7 4 -9 3 -5 -4 3 -6 1 -14 -5 -17 -5 -4 -8 -13 -5 -21 3 -7 0 -16
-6 -20 -7 -4 -8 -3 -4 4 10 17 -3 15 -20 -2 -8 -8 -14 -23 -15 -33 0 -10 -3
-13 -6 -5 -2 6 -9 12 -14 12 -6 0 -7 -4 -4 -10 3 -5 1 -10 -5 -10 -7 0 -9 -8
-5 -20 4 -11 2 -20 -4 -20 -6 0 -11 6 -11 13 -1 21 -21 -22 -25 -51 -2 -19 -8
-26 -19 -24 -11 2 -16 -5 -16 -23 0 -15 -4 -24 -10 -20 -5 3 -10 1 -10 -5 0
-6 -4 -8 -10 -5 -6 3 -10 -5 -10 -19 0 -14 -5 -28 -12 -32 -7 -4 -8 -3 -4 4 5
8 2 10 -8 6 -19 -7 -21 -20 -3 -27 10 -4 10 -6 0 -6 -7 -1 -13 -10 -13 -20 0
-15 -5 -19 -21 -16 -15 3 -19 0 -15 -10 3 -8 1 -17 -5 -20 -5 -4 -6 -11 -3
-17 4 -6 -2 -8 -17 -3 -13 3 -19 3 -14 -2 15 -12 18 -36 4 -27 -9 5 -10 2 -6
-9 3 -10 2 -17 -3 -17 -5 0 -7 -8 -4 -17 5 -14 4 -15 -4 -4 -15 21 -34 2 -28
-28 5 -19 4 -22 -4 -11 -8 13 -10 12 -10 -3 0 -10 -7 -20 -16 -24 -8 -3 -13
-12 -10 -19 3 -8 1 -14 -5 -14 -6 0 -8 -8 -5 -17 5 -15 4 -15 -9 1 -12 15 -24
8 -12 -7 1 -2 -4 -11 -11 -20 -8 -9 -11 -21 -8 -26 4 -5 1 -13 -5 -17 -7 -4
-9 -3 -6 2 3 6 2 16 -4 24 -9 15 -12 0 -12 -53 0 -13 -5 -16 -18 -12 -11 4
-20 2 -20 -4 -1 -6 -3 -15 -4 -21 -1 -5 -3 -14 -4 -20 0 -5 -9 -6 -18 -3 -16
6 -17 5 -3 -12 8 -10 10 -16 4 -12 -14 8 -25 -17 -18 -40 3 -10 -1 -7 -9 6 -9
15 -17 20 -21 12 -4 -6 -2 -11 5 -11 8 0 8 -4 1 -12 -6 -7 -10 -17 -10 -23 1
-5 -8 -15 -19 -20 -11 -6 -18 -16 -15 -23 2 -6 -1 -12 -8 -12 -6 0 -8 -4 -5
-10 3 -6 -1 -7 -9 -4 -9 3 -16 1 -16 -4 0 -6 8 -13 17 -15 13 -3 12 -5 -5 -6
-13 0 -20 -5 -17 -11 3 -5 0 -10 -7 -10 -9 0 -9 -3 2 -10 15 -10 8 -14 -22
-11 -12 2 -15 -4 -11 -19 5 -18 -3 -24 -27 -22 -3 0 -7 -11 -8 -25 -1 -14 -6
-31 -12 -38 -5 -6 -6 -16 -2 -21 4 -4 -1 -2 -10 5 -16 12 -18 10 -19 -15 -1
-16 -1 -33 0 -37 1 -5 -3 -6 -9 -2 -5 3 -10 1 -10 -6 0 -7 -3 -9 -6 -6 -4 4
-1 13 6 22 11 13 10 14 -4 9 -10 -4 -16 -18 -16 -40 0 -27 -4 -34 -20 -34 -15
0 -20 -7 -20 -27 0 -14 -3 -24 -6 -20 -11 11 -34 -21 -34 -47 0 -27 -15 -35
-23 -13 -4 7 -6 5 -7 -5 -2 -10 -4 -22 -5 -28 -1 -5 -3 -14 -4 -19 0 -5 -10
-7 -21 -4 -12 3 -20 0 -20 -6 0 -7 5 -9 10 -6 6 3 10 1 10 -5 0 -6 -11 -15
-25 -20 -14 -5 -25 -12 -25 -14 0 -3 6 -3 14 0 8 3 17 1 21 -5 3 -7 -2 -11
-14 -11 -20 0 -25 -9 -22 -37 1 -7 -7 -10 -19 -8 -13 3 -20 -1 -20 -12 0 -10
6 -13 16 -9 8 3 12 2 9 -4 -3 -6 -13 -10 -21 -10 -8 0 -14 -10 -14 -22 -1 -22
-1 -23 -15 -4 -14 19 -15 18 -11 -12 2 -19 -2 -33 -10 -36 -8 -3 -11 -13 -7
-23 5 -15 3 -15 -11 2 -12 14 -16 16 -15 5 3 -31 -1 -41 -13 -34 -9 5 -9 2 1
-9 12 -15 11 -17 -8 -17 -16 0 -21 -6 -21 -25 0 -19 -5 -25 -17 -23 -10 2 -18
-4 -19 -12 0 -8 -2 -26 -2 -39 -2 -19 -6 -22 -23 -18 -18 5 -20 2 -16 -19 3
-18 0 -24 -14 -24 -12 0 -19 -7 -19 -20 0 -18 -10 -24 -32 -21 -4 0 -5 -8 -3
-19 2 -11 -1 -20 -7 -20 -6 0 -8 -9 -5 -20 4 -15 0 -20 -14 -20 -18 0 -23 -14
-22 -57 0 -7 -2 -12 -6 -11 -21 2 -31 -4 -31 -21 0 -11 -4 -23 -10 -26 -5 -3
-10 -1 -10 6 0 28 -19 -8 -22 -39 -3 -37 -12 -49 -24 -31 -5 8 -3 9 6 4 9 -5
11 -4 6 3 -14 23 -26 12 -26 -22 0 -19 -4 -38 -10 -41 -5 -3 -10 -1 -10 6 0 7
-3 9 -7 5 -7 -6 -11 -24 -15 -58 -1 -10 -6 -18 -11 -18 -5 0 -6 7 -3 16 4 10
1 14 -6 12 -7 -3 -14 -18 -14 -34 -3 -44 -3 -46 -14 -39 -6 4 -7 11 -4 17 5 7
2 8 -5 4 -7 -5 -10 -11 -7 -14 3 -3 1 -12 -6 -19 -9 -11 -9 -17 3 -25 10 -7 7
-8 -13 -5 -15 2 -25 0 -22 -5 3 -5 1 -15 -5 -22 -7 -8 -10 -20 -9 -27 2 -10
-9 -15 -36 -17 -25 -2 -36 0 -31 7 3 6 18 9 33 6 26 -5 26 -5 4 5 -13 5 -28 8
-33 4 -5 -3 -9 0 -9 5 0 6 -3 10 -7 10 -23 -4 -35 3 -30 15 3 8 -2 16 -14 19
-11 3 -16 1 -13 -5 4 -6 -5 -3 -19 6 -16 11 -27 13 -30 6 -3 -6 -4 -5 -3 2 2
7 8 13 13 13 6 0 15 4 20 9 5 5 -1 7 -14 3 -13 -3 -26 -1 -29 5 -3 5 -12 7
-20 4 -9 -3 -14 2 -14 14 0 18 -17 26 -44 21 -5 -1 -6 5 -3 13 4 9 1 18 -5 22
-7 4 -8 3 -4 -4 4 -7 2 -12 -3 -12 -6 0 -11 7 -11 15 0 9 -6 12 -16 8 -9 -3
-20 0 -25 8 -5 10 -3 16 9 21 11 4 4 7 -20 9 -61 3 -63 4 -62 22 1 10 -3 17
-10 16 -27 -3 -37 2 -34 18 2 10 -3 18 -9 19 -7 1 -17 2 -23 3 -5 0 -10 8 -10
16 0 8 -10 16 -22 17 -13 0 -30 2 -38 2 -8 1 -14 9 -12 19 2 9 -1 17 -5 18
-59 5 -99 19 -55 19 12 0 22 5 22 10 0 6 -6 10 -12 9 -28 -3 -39 1 -32 14 6 8
3 8 -9 -2 -15 -11 -18 -10 -26 12 -7 19 -15 24 -30 20 -16 -4 -19 -1 -14 16 5
19 1 21 -37 21 l-43 0 19 22 c15 19 16 20 2 9 -12 -9 -18 -10 -18 -2 0 6 -10
11 -21 11 -16 0 -20 5 -16 20 3 11 1 20 -4 20 -9 0 -13 -15 -10 -33 1 -5 -3
-6 -8 -2 -6 3 -8 12 -4 20 4 11 -3 15 -28 15 -25 0 -30 3 -19 9 8 6 18 7 22 5
15 -9 8 3 -9 17 -11 10 -14 10 -9 2 4 -7 2 -13 -3 -13 -6 0 -11 5 -11 10 0 6
-7 10 -15 10 -13 0 -19 11 -17 31 1 4 -7 6 -16 6 -51 0 -62 4 -62 21 0 15 2
15 11 2 9 -13 10 -13 6 0 -2 9 -15 15 -30 14 -22 -1 -27 3 -27 23 0 13 -4 22
-9 19 -5 -3 -23 -3 -41 0 -21 5 -27 9 -19 15 7 4 17 5 23 2 5 -3 6 -1 2 5 -4
6 -14 8 -23 5 -10 -4 -14 -2 -10 4 4 6 -3 10 -16 9 -15 -1 -22 4 -21 16 1 9
-6 17 -15 17 -31 0 -72 8 -79 16 -4 5 1 5 10 2 12 -4 15 -2 12 7 -3 9 -21 13
-48 13 -23 0 -47 2 -52 4 -5 3 -42 4 -81 4 -40 0 -73 3 -73 7 0 4 13 5 29 3
17 -2 31 2 34 9 3 6 -3 12 -13 12 -10 0 -16 -4 -14 -8 3 -4 -9 -5 -26 -3 -16
2 -33 -1 -36 -7 -4 -7 -2 -8 4 -4 7 4 12 2 12 -3 0 -6 -18 -11 -41 -11 -40 0
-75 -20 -61 -35 4 -5 1 -5 -6 -1 -9 6 -10 11 -3 20 8 9 7 13 -4 13 -8 0 -12
-3 -10 -7 9 -14 -13 -29 -47 -32 -29 -1 -35 -6 -33 -20 3 -13 -2 -18 -21 -18
-14 0 -23 -4 -19 -10 3 -5 13 -7 23 -4 14 5 14 4 2 -4 -8 -6 -18 -8 -22 -6 -4
3 -8 -2 -8 -10 0 -9 -5 -16 -11 -16 -5 0 -7 4 -4 10 3 6 -1 7 -9 4 -19 -7 -20
-16 -3 -33 9 -11 9 -13 0 -7 -12 6 -18 -5 -14 -26 0 -5 -4 -8 -10 -8 -6 0 -8
9 -3 22 6 20 5 21 -10 9 -9 -7 -16 -19 -15 -25 4 -30 -3 -44 -21 -49 -13 -3
-18 -10 -14 -21 4 -12 0 -16 -15 -16 -16 0 -21 -6 -21 -24 0 -19 -5 -24 -18
-21 -19 3 -20 0 -23 -50 -1 -17 -7 -25 -20 -25 -13 0 -20 -8 -21 -22 0 -13 -2
-29 -2 -37 -1 -17 -26 -28 -26 -11 0 6 5 8 12 4 7 -4 8 -3 4 5 -12 18 -26 2
-26 -30 0 -16 -3 -28 -7 -28 -21 3 -34 -2 -32 -13 1 -7 1 -24 0 -38 -1 -19 -3
-22 -10 -10 -6 8 -7 19 -3 25 3 5 -1 4 -9 -2 -9 -7 -15 -26 -14 -43 2 -28 -8
-36 -37 -31 -16 2 -7 -18 9 -22 17 -4 17 -5 1 -6 -10 0 -19 -5 -19 -11 -1 -5
-2 -14 -3 -19 0 -5 -5 -13 -10 -18 -5 -5 -6 -3 -2 5 10 17 -2 15 -20 -3 -9 -8
-11 -15 -5 -15 6 0 11 -7 11 -15 0 -17 -12 -19 -26 -5 -6 6 -10 3 -11 -11 -2
-27 -22 -51 -36 -42 -6 4 -8 0 -4 -10 3 -10 2 -17 -2 -17 -5 0 -7 -9 -4 -20 3
-11 0 -20 -6 -20 -6 0 -11 6 -12 13 0 6 -5 1 -11 -13 -6 -14 -10 -31 -9 -38 1
-7 -2 -12 -6 -11 -28 5 -32 -3 -34 -53 0 -11 -8 -18 -21 -18 -14 0 -18 -5 -14
-15 4 -11 -3 -19 -19 -25 -29 -11 -34 -25 -6 -17 13 3 18 1 14 -9 -2 -7 -11
-10 -19 -7 -10 4 -14 -3 -14 -21 0 -19 -5 -26 -16 -24 -15 3 -23 -12 -26 -49
-1 -7 -6 -13 -11 -13 -5 0 -7 7 -3 15 10 26 -2 16 -18 -15 -8 -17 -11 -28 -7
-26 4 3 8 -1 8 -9 0 -19 -16 -19 -23 0 -4 8 -11 15 -16 15 -7 0 -6 -5 1 -13 6
-8 8 -17 4 -21 -4 -4 -8 -15 -8 -24 0 -9 -6 -17 -14 -17 -14 0 -23 -23 -22
-58 0 -10 -6 -16 -12 -14 -7 2 -11 11 -11 20 1 9 -2 14 -7 11 -5 -3 -9 -11 -8
-17 5 -37 -2 -57 -20 -57 -11 0 -18 -7 -18 -17 0 -43 -5 -51 -29 -57 -20 -5
-24 -10 -16 -18 8 -8 6 -14 -11 -23 -12 -6 -21 -19 -21 -28 1 -9 -2 -14 -7
-11 -13 8 -11 -10 3 -24 9 -9 6 -12 -16 -12 -22 0 -27 -4 -22 -16 4 -10 -1
-18 -13 -21 -11 -3 -21 -15 -23 -27 -2 -14 -9 -20 -20 -18 -13 2 -18 -4 -19
-23 -3 -46 -4 -50 -16 -50 -17 0 -24 -10 -26 -41 -2 -29 -18 -37 -25 -12 -2 9
0 8 8 -2 8 -10 10 -11 8 -2 -7 27 -23 12 -28 -25 -4 -30 -9 -37 -24 -35 -15 3
-18 -1 -13 -17 5 -19 -6 -26 -34 -23 -4 1 -6 -4 -6 -11 1 -50 -4 -68 -20 -65
-10 2 -19 -4 -19 -12 -1 -8 -2 -20 -3 -27 -1 -6 -11 -9 -23 -6 -13 3 -19 1
-13 -4 14 -11 18 -36 5 -28 -5 3 -10 -3 -10 -13 0 -12 -9 -22 -22 -26 -18 -5
-20 -8 -9 -15 11 -7 7 -13 -17 -25 -21 -11 -29 -21 -26 -31 6 -13 -6 -20 -28
-16 -5 0 -7 -2 -7 -7 1 -4 1 -21 0 -39 -1 -26 -4 -30 -20 -26 -15 4 -20 -1
-23 -19 -2 -15 -9 -23 -20 -22 -10 1 -15 -3 -12 -8 3 -5 13 -7 21 -4 9 4 13 1
11 -6 -3 -7 -11 -13 -19 -13 -8 0 -15 -10 -17 -22 -2 -12 -11 -25 -21 -28 -12
-3 -18 -15 -17 -30 0 -14 -2 -25 -6 -25 -30 0 -32 1 -18 11 13 9 13 10 0 6 -8
-2 -15 -15 -15 -28 0 -32 -12 -49 -30 -43 -9 4 -12 0 -9 -13 3 -11 -3 -23 -17
-31 -11 -8 -18 -9 -14 -3 4 7 -5 11 -25 11 -19 0 -29 4 -25 10 4 6 12 8 18 4
7 -3 3 2 -7 10 -15 12 -23 13 -33 4 -11 -9 -13 -8 -11 3 2 9 -5 14 -19 13 -13
-1 -23 3 -23 8 0 5 6 8 14 6 8 -2 14 1 13 7 -1 5 -10 8 -19 7 -10 -2 -18 2
-18 8 0 6 -5 8 -11 5 -6 -4 -13 2 -16 13 -3 14 -11 18 -24 15 -18 -5 -25 10
-20 40 1 5 -3 6 -9 2 -6 -4 -8 -16 -5 -28 6 -21 6 -21 -6 -2 -16 26 -30 35
-43 28 -5 -3 -6 -1 -2 5 4 7 1 12 -6 12 -9 0 -9 3 2 10 12 8 10 10 -8 10 -28
0 -58 26 -39 33 6 3 -4 6 -24 6 -21 1 -42 8 -50 18 -12 15 -12 16 4 10 11 -4
16 -3 12 3 -3 6 -16 10 -28 10 -13 0 -29 9 -37 20 -9 12 -26 20 -43 20 -25 0
-28 2 -17 15 7 8 11 15 9 16 -2 0 -15 3 -29 5 -13 3 -29 10 -35 16 -7 8 -6 9
2 4 8 -5 11 -2 7 7 -3 8 -12 14 -21 13 -9 0 -17 7 -19 17 -1 11 -6 22 -9 25
-4 4 -5 -2 -3 -13 2 -13 -3 -20 -17 -23 -14 -2 -16 0 -7 6 10 7 10 11 -1 21
-8 6 -21 10 -28 9 -9 -2 -13 5 -11 18 2 13 -3 21 -12 21 -8 0 -13 -4 -10 -9 3
-4 0 -8 -5 -8 -6 0 -11 4 -11 8 0 18 -41 51 -56 45 -10 -4 -17 2 -21 16 -3 12
-10 21 -17 20 -26 -3 -35 2 -30 16 4 10 -3 16 -23 20 -50 11 -55 15 -49 30 3
9 1 15 -7 14 -37 -5 -59 3 -64 21 -4 13 -14 20 -30 20 -22 0 -24 2 -13 15 7 8
11 15 9 16 -2 0 -13 2 -24 4 -43 8 -55 11 -62 20 -4 4 -2 5 5 1 6 -4 12 -2 12
3 0 6 -7 12 -15 12 -8 1 -20 2 -27 3 -6 0 -13 6 -15 13 -3 8 4 11 18 8 12 -2
19 -1 15 2 -7 7 -24 11 -64 15 -13 1 -29 9 -35 18 -11 13 -10 13 6 1 15 -12
17 -11 17 3 0 14 -30 22 -62 17 -5 0 -8 8 -8 19 0 11 -4 21 -10 21 -5 1 -16 2
-22 3 -7 1 -12 9 -12 18 1 10 -1 17 -5 16 -29 -3 -71 4 -71 13 0 5 6 7 13 3 8
-5 8 -2 -2 9 -7 9 -22 17 -32 17 -17 0 -23 10 -21 31 1 4 -16 6 -37 5 -24 0
-38 3 -38 12 0 8 8 10 21 7 19 -6 20 -5 3 6 -16 10 -35 15 -58 18 -4 1 -9 10
-12 21 -3 13 -11 18 -26 15 -11 -2 -23 1 -26 6 -4 5 -11 6 -17 3 -7 -4 -8 -2
-4 5 6 9 11 9 21 1 9 -8 15 -8 20 0 4 6 3 9 -2 8 -4 -1 -18 3 -30 10 -13 7
-23 9 -23 5 0 -4 -5 -2 -11 4 -6 6 -19 9 -28 6 -11 -4 -10 -1 4 11 13 11 15
16 5 13 -8 -2 -21 3 -28 12 -8 9 -11 11 -8 6 2 -6 -3 -11 -13 -11 -10 0 -18 6
-18 13 0 7 5 9 10 6 6 -3 7 -1 4 4 -4 6 -21 13 -39 17 -24 5 -29 9 -19 15 17
11 3 20 -38 23 -31 2 -40 11 -22 22 5 4 12 1 14 -4 3 -6 4 -5 3 2 -2 7 -9 12
-16 10 -7 -1 -18 3 -26 9 -8 6 -14 8 -14 5 0 -4 -6 -1 -14 6 -10 10 -11 15 -2
21 7 6 5 7 -6 3 -10 -3 -20 -1 -23 4 -3 5 -14 7 -25 5 -12 -2 -18 0 -15 6 4 5
10 7 15 4 5 -3 11 -2 14 3 5 9 -3 11 -49 15 -18 1 -25 8 -25 24 0 16 -5 20
-20 16 -15 -4 -20 0 -20 13 -1 18 -1 18 -16 -1 -16 -20 -16 -19 -9 4 5 16 4
21 -4 17 -6 -4 -11 -2 -11 4 0 7 -6 10 -14 7 -18 -7 -28 3 -16 17 6 8 1 12
-18 14 -15 1 -28 7 -30 12 -2 6 -8 10 -14 10 -13 0 -38 26 -33 34 3 3 -1 2 -7
-4 -7 -5 -17 -10 -23 -10 -5 0 -3 5 5 10 11 7 11 10 2 10 -7 0 -10 5 -7 10 5
9 -32 16 -58 11 -5 -1 -6 3 -2 9 3 6 11 8 16 5 5 -3 6 1 3 10 -5 13 -9 13 -22
3 -12 -10 -14 -10 -8 0 7 12 -9 17 -44 13 -9 -1 -11 1 -5 6 20 16 17 36 -5 30
-16 -4 -23 1 -30 18 -7 18 -16 23 -39 21 -29 -2 -35 4 -32 31 1 7 -7 10 -18 8
-14 -2 -21 4 -25 21 -4 14 -11 22 -17 19 -5 -4 -17 -1 -26 7 -9 7 -14 8 -10 2
3 -6 0 -11 -8 -11 -20 0 -19 14 2 27 17 11 17 11 1 6 -10 -3 -18 -1 -18 3 0 5
-9 7 -20 4 -15 -4 -20 0 -20 16 0 20 -8 24 -61 24 -9 0 -16 6 -16 13 0 8 7 14
14 14 8 0 11 -5 7 -12 -5 -7 -3 -8 5 -3 18 11 1 24 -37 27 -23 2 -32 7 -32 20
0 10 -3 17 -7 17 -5 -1 -23 -1 -41 0 -30 1 -32 3 -18 16 17 18 30 20 20 3 -4
-7 -3 -8 5 -4 15 10 3 29 -15 22 -20 -8 -64 11 -64 27 0 11 -12 15 -57 19 -7
1 -10 5 -7 10 3 5 9 6 14 3 5 -3 11 -2 14 3 3 5 0 9 -7 10 -7 0 -21 3 -32 6
-11 2 -23 5 -27 5 -5 1 -8 10 -8 20 0 14 -5 18 -18 14 -10 -2 -24 3 -32 12
-11 13 -10 15 6 9 27 -10 14 0 -24 19 -18 8 -29 11 -26 5 4 -6 1 -9 -7 -6 -8
3 -13 12 -11 22 2 11 -4 16 -20 16 -13 0 -32 7 -42 15 -11 8 -15 15 -10 15 6
0 15 -5 20 -10 7 -7 11 -6 11 5 0 11 -11 15 -39 15 -31 0 -38 3 -38 20 0 15
-7 20 -25 20 -17 0 -23 4 -19 14 3 8 0 17 -7 22 -8 4 -10 3 -5 -4 4 -7 2 -12
-4 -12 -6 0 -8 -5 -4 -12 4 -7 3 -8 -4 -4 -6 4 -9 13 -5 21 4 11 -2 15 -22 15
-28 0 -28 0 -9 22 15 19 16 20 2 9 -10 -7 -18 -9 -18 -4 0 5 -12 10 -26 11
-14 1 -33 6 -42 12 -13 8 -10 9 13 4 29 -6 29 -6 10 9 -11 8 -23 13 -27 11 -7
-5 -12 19 -9 39 1 5 -3 6 -8 2 -6 -3 -8 -12 -4 -20 3 -9 -1 -15 -10 -15 -8 0
-14 8 -13 18 1 12 -5 16 -21 15 -17 -2 -21 2 -18 18 3 16 -1 19 -18 17 -12 -2
-22 2 -22 7 -1 20 -16 34 -30 28 -8 -3 -15 0 -15 6 0 6 -7 8 -17 4 -10 -4 -14
-2 -10 4 6 10 -21 42 -30 36 -7 -6 -23 -3 -22 5 4 22 -3 34 -15 29 -8 -3 -17
-3 -21 1 -6 7 -10 8 -37 11 -9 1 -9 4 1 10 12 8 8 11 -15 17 -16 5 -33 8 -39
9 -5 0 -11 10 -13 22 -3 19 -6 21 -23 13 -18 -10 -24 -4 -20 23 1 6 -23 11
-42 8 -5 -1 -5 9 -2 21 7 23 7 23 -8 3 -9 -11 -19 -17 -23 -12 -4 4 -2 7 4 7
7 0 12 5 12 11 0 5 -4 7 -10 4 -5 -3 -10 -1 -10 4 0 6 -3 10 -7 10 -21 -3 -31
3 -36 23 -5 18 -8 19 -21 8 -14 -11 -16 -9 -16 15 0 20 -4 26 -15 22 -8 -4
-17 -2 -20 2 -3 5 -14 7 -25 4 -22 -6 -26 7 -8 25 9 9 7 12 -12 12 -45 0 -59
3 -64 17 -4 10 -1 11 13 4 13 -8 18 -6 18 5 0 8 -5 14 -11 13 -6 -1 -23 -1
-38 0 -21 1 -26 5 -23 21 2 11 1 19 -3 19 -25 -4 -41 4 -47 21 -3 11 -9 19
-13 19 -4 -1 -20 -1 -36 0 -22 1 -27 5 -23 20 3 14 -1 18 -17 17 -12 -1 -20 4
-18 12 3 14 -45 35 -65 28 -8 -4 -13 3 -13 18 0 18 -5 23 -17 21 -24 -3 -38 6
-23 15 13 8 7 11 -53 24 -22 5 -26 10 -18 20 8 9 7 13 -2 14 -28 1 -61 12 -71
22 -8 8 -6 9 5 5 10 -4 20 -2 24 4 4 7 -8 11 -34 11 -47 0 -62 16 -29 30 20 9
20 10 3 9 -52 -3 -66 1 -63 19 2 13 -3 16 -21 14 -19 -2 -22 2 -18 18 3 11 0
23 -5 27 -7 3 -8 1 -4 -5 4 -7 2 -12 -4 -12 -6 0 -8 -5 -4 -12 4 -7 3 -8 -5
-4 -6 4 -9 11 -6 16 6 9 -23 22 -35 15 -4 -3 -10 2 -13 9 -3 8 -1 17 6 20 7 2
2 5 -9 5 -24 1 -48 24 -37 35 4 4 -1 4 -11 0 -14 -5 -15 -9 -4 -16 10 -8 10
-9 -2 -5 -8 2 -15 10 -15 18 0 8 -6 15 -12 15 -7 1 -18 2 -24 3 -6 0 -9 8 -5
16 4 11 -2 15 -24 15 -21 0 -28 4 -24 14 6 17 -6 25 -40 28 -14 1 -26 6 -26
11 0 4 -6 5 -12 1 -9 -5 -9 -2 1 9 14 18 9 20 -50 20 -9 0 -16 6 -16 13 0 10
4 11 12 4 9 -7 14 -6 18 5 4 8 3 14 -1 14 -4 -1 -22 -1 -39 0 -26 1 -33 5 -33
21 0 16 -7 20 -32 20 -25 0 -29 3 -20 12 16 16 15 25 -3 25 -8 0 -11 -5 -8
-11 3 -6 0 -5 -8 2 -7 6 -22 12 -33 13 -12 0 -15 3 -9 6 20 7 -12 34 -32 27
-9 -4 -15 -3 -14 2 5 27 -3 41 -23 40 -15 -1 -22 4 -20 14 1 10 -3 9 -14 -5
-15 -20 -16 -19 -12 5 3 22 -1 25 -24 24 -30 -1 -35 5 -17 23 9 9 7 11 -7 9
-11 -2 -23 -1 -29 3 -5 3 -17 6 -25 6 -9 0 -14 7 -12 18 2 12 -4 17 -23 17
-14 0 -24 3 -24 8 3 20 -2 33 -11 27 -6 -4 -8 -10 -5 -15 3 -5 1 -11 -4 -15
-6 -3 -8 3 -6 15 2 11 0 21 -6 21 -5 1 -15 2 -21 3 -7 0 -13 9 -13 18 0 9 -4
20 -9 25 -5 4 -6 3 -2 -4 4 -7 2 -13 -3 -13 -6 0 -11 5 -11 11 0 8 -6 7 -16
-2 -15 -12 -16 -11 -10 9 6 18 4 22 -16 22 -13 0 -32 7 -42 15 -11 8 -15 15
-10 15 6 0 15 -5 20 -10 7 -7 11 -7 11 3 0 11 -18 17 -64 20 -7 0 -13 10 -13
23 0 17 -4 21 -20 17 -18 -5 -24 4 -22 28 1 6 -19 9 -55 9 -13 0 -23 5 -23 11
0 5 6 7 13 3 9 -5 9 -4 0 6 -12 13 -26 18 -64 22 -9 1 -16 9 -15 17 1 9 -11
18 -29 22 -16 4 -25 7 -18 8 23 2 1 31 -24 31 -17 0 -23 5 -21 17 3 18 -1 19
-48 22 -19 1 -25 5 -20 16 4 11 -3 17 -27 22 -17 4 -35 6 -40 5 -4 -1 -6 1 -6
5 4 24 -4 33 -25 33 -19 0 -24 5 -21 19 2 12 -2 18 -13 18 -43 0 -45 2 -31 20
8 9 9 14 3 10 -6 -3 -23 0 -38 8 -14 8 -24 10 -21 5 4 -6 1 -10 -4 -10 -17 0
-13 18 7 30 13 8 13 10 2 9 -44 -4 -60 2 -60 22 0 14 -5 19 -15 16 -8 -4 -17
-2 -21 4 -3 5 -15 7 -27 4 -12 -2 -16 -2 -10 1 17 7 -8 34 -31 34 -9 0 -16 8
-16 19 0 13 -7 18 -22 17 -17 -1 -22 4 -20 18 3 18 2 18 -13 2 -21 -20 -32
-21 -15 -1 13 16 13 16 -30 19 -8 1 -14 9 -12 19 2 10 -3 17 -12 17 -8 0 -22
9 -30 21 -8 12 -19 18 -25 15 -5 -4 -12 -2 -16 4 -4 6 -10 8 -15 5 -8 -5 -25
11 -32 30 -1 5 -15 9 -29 9 -15 -1 -26 4 -26 12 0 9 4 11 12 4 8 -7 12 -5 12
3 0 7 -14 14 -31 15 -17 2 -33 7 -34 12 -2 6 -9 7 -15 3 -7 -4 -6 1 2 10 12
15 10 17 -17 17 -33 0 -50 14 -31 26 8 5 9 3 4 -6 -6 -9 -4 -11 4 -6 21 14 5
22 -44 25 -18 1 -25 7 -25 22 0 19 -2 20 -17 8 -11 -10 -14 -10 -9 -1 4 7 2
12 -7 12 -8 0 -14 8 -13 17 1 18 -3 19 -49 22 -18 1 -25 7 -25 22 0 16 -5 20
-20 16 -15 -4 -20 0 -20 15 0 10 -4 17 -9 14 -10 -7 -44 28 -35 37 3 3 -3 3
-15 0 -12 -3 -21 -1 -21 5 0 6 -9 9 -21 7 -17 -3 -20 0 -16 15 3 12 -1 19 -12
19 -44 2 -54 6 -59 23 -2 10 -11 18 -19 18 -8 0 -17 9 -20 20 -4 13 -14 20
-30 20 -15 0 -22 4 -17 11 4 8 0 8 -15 0 -12 -7 -21 -8 -20 -4 3 17 -1 33 -8
32 -22 -4 -32 3 -27 16 4 10 0 15 -14 15 -12 0 -24 5 -28 11 -5 8 -9 8 -14 -1
-5 -8 -11 0 -19 20 -9 28 -13 31 -26 20 -13 -10 -15 -9 -15 10 0 17 -4 21 -19
17 -11 -3 -22 1 -25 9 -3 8 -13 11 -23 8 -10 -3 -7 2 7 11 14 8 18 15 10 14
-49 -5 -70 2 -70 21 0 15 -7 20 -26 20 -21 0 -24 3 -19 21 5 14 3 20 -7 18
-28 -3 -68 1 -67 9 4 22 -3 32 -21 32 -11 0 -20 6 -20 14 0 15 -21 26 -51 26
-21 0 -25 10 -8 27 7 7 3 10 -16 8 -20 -3 -29 3 -37 21 -9 18 -14 21 -25 13
-10 -9 -13 -7 -13 7 0 11 -4 15 -8 9 -14 -19 -30 -15 -24 7 3 14 1 19 -6 14
-7 -4 -12 -3 -12 3 0 5 -9 8 -21 6 -16 -3 -18 -1 -10 9 9 10 8 15 -4 20 -9 3
-13 2 -10 -3 3 -5 1 -13 -5 -16 -6 -4 -9 -3 -8 2 4 15 -13 53 -24 53 -7 0 -7
-4 1 -13 8 -10 7 -14 -4 -14 -8 0 -15 9 -15 19 0 10 -3 18 -7 19 -44 4 -82 19
-50 19 10 0 17 5 17 10 0 6 -6 10 -12 9 -7 -1 -26 -1 -43 0 l-30 2 25 15 c25
15 25 15 1 8 -16 -4 -21 -3 -17 5 5 7 -2 11 -18 11 -19 0 -26 5 -26 19 0 14
-6 19 -20 16 -11 -2 -20 0 -20 5 0 5 -7 7 -15 4 -11 -4 -13 -2 -10 9 6 15 -20
31 -36 21 -8 -5 -13 9 -10 29 0 4 -8 7 -19 7 -11 0 -20 5 -20 11 0 5 -4 7 -10
4 -5 -3 -18 -1 -27 5 -14 9 -14 10 -2 7 9 -3 22 -1 30 3 11 7 9 9 -6 10 -54 1
-65 5 -65 22 0 12 -8 18 -24 18 -14 0 -28 5 -31 10 -4 6 -11 7 -17 4 -7 -5 -9
-1 -5 9 6 16 -8 23 -36 18 -5 -1 -6 3 -2 9 3 5 0 10 -7 10 -9 0 -9 3 2 10 11
7 7 10 -20 11 -19 1 -39 1 -43 0 -5 -1 -6 3 -2 9 3 5 1 10 -5 10 -6 0 -8 5 -5
10 3 6 -3 10 -14 10 -18 0 -25 9 -23 31 1 6 -8 7 -55 10 -27 2 -28 2 -5 12 12
5 22 14 22 19 0 5 -9 4 -20 -2 -15 -8 -20 -8 -20 1 0 6 -9 9 -20 6 -16 -4 -20
0 -20 19 0 20 -4 23 -28 20 -19 -2 -29 2 -29 10 0 7 4 11 9 8 4 -3 5 3 1 12
-4 10 -8 13 -10 7 -3 -7 -11 -9 -19 -6 -7 3 -11 9 -8 14 3 5 0 9 -5 9 -6 0
-11 -4 -11 -10 0 -19 -16 -10 -17 10 -1 11 2 18 7 15 5 -3 11 -1 14 3 3 5 -10
8 -29 7 -28 -2 -35 1 -35 16 0 13 -8 20 -22 21 -13 0 -30 1 -38 2 -8 1 -15 10
-15 21 0 15 -6 19 -23 17 -12 -2 -22 0 -21 5 3 19 -2 33 -12 33 -6 0 -8 -7 -5
-16 3 -8 2 -12 -4 -9 -6 3 -10 16 -11 28 0 12 -3 16 -6 10 -7 -19 -21 -15 -28
8 -5 15 -13 19 -26 16 -16 -4 -19 -1 -17 16 3 19 -2 22 -34 22 -25 0 -38 5
-38 13 0 7 4 11 9 7 5 -3 12 -2 15 3 3 5 0 9 -7 10 -7 0 -21 3 -32 6 -11 2
-23 5 -27 5 -4 1 -5 8 -2 16 4 10 0 15 -14 15 -25 0 -48 26 -30 34 9 4 9 5 -2
5 -51 -4 -70 2 -70 19 0 10 -6 19 -12 20 -42 5 -53 9 -55 17 -2 6 1 10 6 10 5
0 12 3 16 6 3 4 -2 6 -12 6 -49 0 -63 4 -63 19 0 9 5 12 12 8 7 -4 8 -3 4 4
-4 7 -20 12 -37 12 -16 0 -29 5 -29 11 0 5 6 7 13 3 8 -6 8 -3 -1 9 -8 9 -17
16 -20 15 -4 0 -19 0 -34 1 -21 1 -26 5 -23 21 4 22 -20 28 -28 8 -3 -8 -6 -6
-6 4 -1 11 -8 16 -19 13 -15 -3 -19 3 -19 30 0 20 6 36 14 39 9 4 12 1 7 -7
-5 -9 -4 -9 5 -1 7 6 13 25 13 42 1 26 3 29 15 16 20 -19 25 -18 18 5 -3 11
-1 22 4 25 6 4 8 13 4 22 -3 8 -2 14 3 13 27 -5 36 2 30 25 -5 21 -3 23 14 19
12 -3 20 -2 19 3 -4 15 13 44 21 39 5 -3 12 0 16 6 4 8 3 9 -4 5 -7 -4 -12 -2
-12 4 0 6 -5 8 -12 4 -7 -4 -8 -3 -4 4 4 6 13 9 21 5 13 -4 20 16 17 48 -1 3
5 6 13 6 8 0 12 -4 9 -9 -3 -4 0 -8 5 -8 6 0 11 10 12 23 1 31 6 58 13 65 3 3
6 0 6 -7 0 -7 5 -9 10 -6 6 3 10 15 10 26 0 12 7 19 20 19 16 0 20 7 21 33 1
17 1 35 0 39 0 5 2 7 7 7 22 -4 32 3 32 21 0 13 7 20 19 20 15 0 19 7 17 34
-1 19 1 33 4 31 9 -6 42 23 37 32 -3 5 3 14 13 21 17 10 18 9 13 -6 -3 -9 -3
-14 1 -10 7 6 14 30 15 56 1 6 6 12 12 12 5 0 7 -4 4 -10 -4 -6 1 -7 11 -3 14
5 13 8 -7 20 -13 8 -16 12 -7 9 16 -5 33 18 23 34 -3 4 2 11 11 14 8 3 12 2 9
-4 -3 -6 1 -7 9 -4 12 4 13 11 6 24 -7 14 -6 20 7 24 9 4 20 1 25 -6 7 -10 8
-10 7 2 -4 39 1 61 14 54 7 -5 6 0 -3 11 -14 17 -13 18 2 12 19 -7 43 24 30
38 -4 4 2 5 12 3 10 -1 21 3 23 10 3 6 0 12 -7 12 -6 0 -8 -5 -4 -12 5 -9 2
-9 -9 1 -21 16 -21 17 -2 19 8 1 22 3 30 4 11 1 12 5 5 12 -5 5 -10 17 -10 26
1 12 3 12 15 -4 13 -17 14 -16 20 17 5 25 11 34 21 30 8 -3 15 1 15 11 4 47
19 76 36 69 12 -5 14 -1 8 17 -5 17 -4 22 6 18 8 -3 20 1 27 8 10 12 10 14 -3
14 -8 0 -15 4 -15 10 0 5 7 7 15 3 12 -4 15 0 11 19 -3 21 0 25 17 24 16 -1
21 4 19 17 -2 9 2 17 9 17 8 0 9 4 0 13 -8 10 -7 14 4 14 8 0 12 -4 9 -8 -2
-4 0 -10 6 -14 8 -5 15 34 12 66 -1 3 5 6 13 6 7 0 11 -6 8 -13 -2 -6 1 -15 8
-20 7 -4 10 -3 6 2 -3 5 -1 32 5 59 9 43 12 47 19 28 11 -31 16 -29 18 10 3
53 4 57 11 57 3 0 12 -6 19 -12 10 -11 12 -7 9 17 -2 24 1 30 17 30 11 0 21 6
21 13 1 6 2 19 3 28 0 8 5 13 10 10 5 -3 15 2 22 11 10 12 10 14 2 9 -7 -4
-13 -4 -13 1 1 14 31 48 43 48 7 0 12 7 13 15 1 8 2 24 3 35 l2 20 15 -20 c16
-20 16 -20 9 3 -3 12 -2 22 4 22 5 0 8 9 6 20 -3 15 2 20 16 20 11 0 18 4 14
9 -6 11 23 43 34 37 4 -3 8 3 9 12 5 42 10 57 20 57 16 0 21 9 24 41 1 17 8
31 15 31 10 0 10 -4 1 -14 -12 -15 -5 -28 10 -19 6 3 9 17 7 31 -2 19 2 25 19
26 20 0 20 1 2 8 -19 7 -19 8 3 14 16 4 22 11 18 21 -5 11 0 16 13 16 11 0 20
5 20 11 0 6 -6 9 -13 6 -8 -3 -14 1 -14 8 0 7 8 10 19 7 12 -3 18 1 18 13 0
12 4 15 13 9 7 -5 4 0 -8 10 l-20 19 23 -6 c22 -5 26 1 22 38 -2 16 0 17 14 6
13 -11 17 -11 22 3 3 9 7 27 8 41 1 17 7 25 19 25 10 0 17 8 17 20 0 13 7 20
20 20 19 0 26 24 21 68 -1 7 2 12 6 11 25 -4 33 4 33 34 0 25 6 37 23 45 12 6
16 11 8 11 -11 1 -11 4 -1 16 10 12 10 15 0 15 -9 0 -9 4 1 17 10 11 10 14 2
9 -16 -9 -17 6 -2 21 8 8 7 13 -2 18 -7 5 -10 4 -5 -3 3 -6 2 -13 -3 -16 -5
-4 -8 -24 -6 -46 2 -22 0 -40 -4 -40 -4 0 -8 32 -9 72 -2 66 -7 80 -34 90 -4
2 -8 17 -10 34 -1 17 -7 31 -13 32 -5 1 -21 4 -35 6 -14 2 -24 9 -22 15 1 6
-3 13 -10 15 -48 15 -50 16 -39 30 9 10 7 13 -6 13 -46 0 -63 4 -63 14 0 6 7
9 15 5 8 -3 15 -1 15 4 0 9 -8 11 -35 10 -8 -1 -65 30 -65 35 0 2 7 1 17 -2
11 -4 14 -3 9 6 -4 6 -16 9 -26 6 -22 -7 -33 17 -17 36 10 11 9 11 -5 0 -10
-7 -15 -17 -12 -22 3 -5 0 -9 -5 -9 -10 0 -16 22 -11 45 1 6 -4 4 -11 -2 -17
-17 -26 -16 -33 3 -3 8 -2 12 4 9 6 -3 7 1 4 10 -5 12 -9 13 -20 4 -11 -9 -14
-9 -14 0 0 7 -7 11 -16 9 -10 -2 -19 3 -22 11 -3 8 0 11 6 7 6 -3 13 -2 17 4
4 6 -9 10 -34 10 -34 0 -39 3 -36 20 3 16 -2 20 -26 20 -30 0 -36 9 -19 26 7
7 6 11 -4 11 -8 0 -13 -4 -10 -9 3 -4 0 -8 -5 -8 -6 0 -11 4 -11 9 0 5 -15 12
-32 16 -18 4 -27 9 -20 12 19 7 14 25 -5 21 -12 -2 -22 6 -29 21 -9 22 -11 23
-17 8 -5 -12 -3 -16 5 -11 7 5 8 3 4 -5 -8 -12 -20 -7 -22 10 -1 5 -2 13 -3
18 0 4 -13 6 -27 3 -24 -4 -25 -3 -15 16 10 19 9 20 -14 16 -25 -4 -30 3 -25
35 1 12 -1 13 -13 2 -11 -8 -17 -9 -22 -1 -3 6 -10 8 -15 5 -4 -3 -14 3 -21
12 -12 14 -12 16 1 8 13 -8 13 -7 0 9 -8 10 -16 13 -18 8 -4 -13 -52 6 -52 21
0 5 5 5 13 -1 10 -8 13 -6 14 11 0 12 -1 17 -3 11 -6 -14 -45 -6 -56 10 -5 7
-8 6 -9 -4 0 -8 -4 -4 -8 10 -4 16 -14 25 -26 25 -11 0 -20 7 -20 15 0 10 -13
17 -35 20 -21 3 -35 11 -35 19 0 8 -8 15 -19 17 -10 1 -24 8 -30 15 -8 9 -8
10 2 5 6 -4 12 -3 12 2 0 6 -7 12 -15 16 -8 3 -15 0 -15 -7 0 -8 -4 -6 -10 3
-5 8 -10 11 -10 5 0 -5 -13 5 -29 23 -16 18 -31 27 -33 21 -2 -7 -9 -4 -18 7
-9 11 -10 15 -2 10 6 -4 12 -2 12 3 0 6 -9 11 -20 11 -17 0 -24 9 -22 30 0 3
-11 7 -26 8 -14 1 -29 7 -33 13 -4 8 -8 7 -12 -2 -3 -8 -6 -4 -6 9 -1 15 -7
22 -21 22 -18 0 -25 10 -21 33 0 4 -4 7 -10 7 -6 0 -9 -7 -6 -15 4 -8 2 -17
-3 -20 -6 -4 -10 3 -10 14 0 15 -6 21 -24 21 -17 0 -23 5 -22 18 1 12 -8 18
-31 20 -21 2 -34 10 -38 23 -4 10 -15 19 -25 19 -10 0 -20 9 -23 21 -4 14 -11
20 -21 16 -8 -3 -18 -2 -21 3 -3 5 -13 7 -23 4 -14 -5 -14 -4 -2 4 8 6 17 9
20 7 4 -2 7 2 7 10 0 10 -5 11 -19 4 -12 -6 -18 -6 -18 1 0 5 -10 10 -21 10
-16 0 -20 5 -16 20 6 22 -3 26 -20 9 -7 -7 -12 -3 -17 15 -3 14 -11 26 -17 26
-6 0 -6 -7 1 -20 8 -16 8 -18 -4 -14 -9 3 -15 9 -14 12 2 20 -4 28 -23 29 -29
2 -37 12 -19 23 11 7 8 10 -12 10 -21 0 -28 5 -28 19 0 14 -6 19 -20 16 -11
-2 -20 0 -20 5 0 5 -9 7 -20 5 -14 -3 -20 2 -20 16 0 18 -10 23 -36 20 -7 -1
-11 7 -10 16 1 13 -8 19 -33 23 -23 3 -35 11 -37 23 -3 22 -14 36 -14 19 0 -6
-7 -9 -15 -6 -9 4 -14 14 -13 23 2 9 -3 15 -11 13 -8 -2 -18 3 -22 10 -6 10
-9 10 -9 1 0 -19 -27 -4 -33 18 -3 11 -9 19 -14 18 -4 -1 -17 -1 -28 0 -15 1
-17 3 -6 10 11 7 9 11 -8 20 -12 7 -26 9 -31 6 -18 -11 -32 5 -19 21 9 11 7
14 -10 14 -15 0 -20 4 -15 13 5 7 0 6 -11 -3 -17 -14 -18 -13 -13 8 5 19 2 22
-23 22 -16 0 -28 3 -28 8 4 25 -4 32 -42 32 -37 0 -39 1 -25 16 17 17 20 25 9
23 -5 -1 -21 -1 -37 0 -20 1 -27 5 -23 16 4 8 1 17 -5 21 -7 4 -8 3 -4 -4 4
-7 2 -12 -3 -12 -6 0 -11 5 -11 10 0 6 -9 10 -20 10 -13 0 -20 7 -20 20 0 11
-4 20 -10 20 -5 0 -10 -6 -10 -12 0 -10 -2 -10 -9 0 -4 7 -17 15 -27 16 -10 2
-19 9 -19 17 0 8 -10 14 -23 13 -12 0 -22 4 -21 10 1 6 1 18 0 26 -1 13 -2 13
-11 0 -5 -8 -10 -10 -10 -3 0 6 -11 10 -24 9 -16 -2 -23 1 -19 10 2 7 12 10
21 7 14 -4 15 -3 2 5 -8 6 -18 8 -22 6 -4 -3 -8 0 -8 6 0 7 -6 10 -14 7 -17
-7 -36 11 -30 27 3 8 -5 12 -24 10 -29 -2 -76 37 -63 53 3 4 -2 1 -12 -7 -17
-12 -18 -12 -15 6 2 13 -3 19 -15 19 -18 0 -39 24 -32 35 2 4 -2 7 -10 7 -10
0 -11 -5 -4 -19 5 -10 7 -18 5 -18 -7 0 -41 63 -38 72 1 4 -5 5 -14 1 -9 -3
-20 0 -25 8 -7 12 -9 12 -9 0 0 -11 -3 -11 -15 -1 -8 6 -18 9 -23 6 -5 -3 -9
1 -9 9 0 10 5 11 19 4 12 -6 18 -6 18 1 0 5 -6 10 -14 10 -8 0 -23 8 -32 18
-17 16 -18 16 -11 -2 6 -16 5 -17 -8 -6 -8 7 -15 18 -15 25 0 8 -8 11 -20 8
-18 -5 -25 5 -21 30 0 4 -8 7 -18 7 -11 0 -22 6 -24 13 -4 10 -6 10 -6 0 -1
-7 -8 -13 -18 -13 -14 0 -14 3 3 22 15 19 16 20 2 9 -10 -8 -18 -9 -18 -3 0 6
-38 10 -102 10 -57 0 -96 -3 -89 -8z m-124 -168 c-3 -3 -11 0 -18 7 -9 10 -8
11 6 5 10 -3 15 -9 12 -12z m569 0 c3 -5 -1 -9 -9 -9 -8 0 -15 4 -15 9 0 4 4
8 9 8 6 0 12 -4 15 -8z m621 -421 c3 -5 1 -12 -5 -16 -5 -3 -10 1 -10 9 0 18
6 21 15 7z m272 -207 c-3 -3 -12 -4 -19 -1 -8 3 -5 6 6 6 11 1 17 -2 13 -5z
m123 -60 c0 -8 -19 -13 -24 -6 -3 5 1 9 9 9 8 0 15 -2 15 -3z m117 -90 c-3 -3
-12 -4 -19 -1 -8 3 -5 6 6 6 11 1 17 -2 13 -5z m579 -392 c1 -7 0 -8 -3 -2 -2
5 -9 8 -14 4 -5 -3 -9 0 -9 6 0 15 23 7 26 -8z m1236 -847 c0 -5 -5 -10 -11
-11 -8 -2 -7 -1 0 3 8 4 7 8 -2 15 -11 8 -11 9 -1 6 8 -2 14 -8 14 -13z m8
-331 c0 -8 -19 -13 -24 -6 -3 5 1 9 9 9 8 0 15 -2 15 -3z m-5960 -269 c0 -2
-6 -5 -13 -8 -8 -3 -14 1 -14 8 0 7 6 11 14 8 7 -3 13 -6 13 -8z m5635 -194
c3 -5 2 -12 -3 -15 -5 -3 -9 1 -9 9 0 17 3 19 12 6z m-5330 -160 c3 -5 2 -12
-3 -15 -5 -3 -9 1 -9 9 0 17 3 19 12 6z m4835 -581 c0 -5 -5 -10 -11 -10 -5 0
-7 5 -4 10 3 6 8 10 11 10 2 0 4 -4 4 -10z m-3750 -156 c0 -8 -19 -13 -24 -6
-3 5 1 9 9 9 8 0 15 -2 15 -3z m3595 -74 c-3 -5 -12 -10 -18 -10 -7 0 -6 4 3
10 19 12 23 12 15 0z m-3205 -196 c0 -8 -5 -12 -10 -9 -6 4 -8 11 -5 16 9 14
15 11 15 -7z m233 -157 c3 -8 -1 -14 -8 -14 -7 0 -11 6 -8 14 3 7 6 13 8 13 2
0 5 -6 8 -13z m2694 -42 c0 -8 -4 -12 -9 -9 -5 3 -6 10 -3 15 9 13 12 11 12
-6z m-2577 -41 c0 -8 -5 -12 -10 -9 -6 4 -8 11 -5 16 9 14 15 11 15 -7z m120
-70 c0 -8 -19 -13 -24 -6 -3 5 1 9 9 9 8 0 15 -2 15 -3z m2303 -439 c-3 -9 -8
-14 -10 -11 -3 3 -2 9 2 15 9 16 15 13 8 -4z m237 -166 c0 -6 -4 -7 -10 -4 -5
3 -10 11 -10 16 0 6 5 7 10 4 6 -3 10 -11 10 -16z m37 -34 c0 -8 -4 -12 -9 -9
-5 3 -6 10 -3 15 9 13 12 11 12 -6z m-1607 -25 c0 -5 -5 -10 -11 -10 -5 0 -7
5 -4 10 3 6 8 10 11 10 2 0 4 -4 4 -10z m107 -75 c0 -8 -4 -15 -9 -15 -10 0
-11 14 -1 23 9 10 10 9 10 -8z m118 -75 c3 -6 -1 -7 -9 -4 -18 7 -21 14 -7 14
6 0 13 -4 16 -10z m388 -273 c3 -8 -1 -14 -8 -14 -7 0 -11 6 -8 14 3 7 6 13 8
13 2 0 5 -6 8 -13z m2437 -517 c0 -5 -5 -10 -11 -10 -5 0 -7 5 -4 10 3 6 8 10
11 10 2 0 4 -4 4 -10z m108 -85 c-3 -3 -9 2 -12 12 -6 14 -5 15 5 6 7 -7 10
-15 7 -18z m115 -72 c-3 -7 -6 -13 -8 -13 -2 0 -5 6 -8 13 -3 8 1 14 8 14 7 0
11 -6 8 -14z m-1339 -221 c3 -5 -1 -9 -9 -9 -8 0 -12 4 -9 9 3 4 7 8 9 8 2 0
6 -4 9 -8z m1937 -179 c13 -15 12 -15 -7 -5 -12 6 -25 8 -29 4 -5 -4 -5 -1 -1
6 10 16 21 15 37 -5z m143 -98 c-4 -8 -11 -15 -16 -15 -6 0 -5 6 2 15 7 8 14
15 16 15 2 0 1 -7 -2 -15z m355 -239 c10 -12 8 -13 -8 -9 -12 3 -18 9 -15 14
7 12 10 11 23 -5z m-1602 -68 c-3 -8 -6 -5 -6 6 -1 11 2 17 5 13 3 -3 4 -12 1
-19z m63 -28 c0 -5 -4 -10 -9 -10 -6 0 -13 5 -16 10 -3 6 1 10 9 10 9 0 16 -4
16 -10z m120 -74 c0 -11 -19 -15 -25 -6 -3 5 1 10 9 10 9 0 16 -2 16 -4z
m13357 -218 c-3 -8 -6 -5 -6 6 -1 11 2 17 5 13 3 -3 4 -12 1 -19z m-11317 -23
c0 -2 -6 -8 -13 -14 -10 -8 -14 -7 -14 2 0 8 6 14 14 14 7 0 13 -1 13 -2z
m11740 -89 c0 -3 -4 -8 -10 -11 -5 -3 -10 -1 -10 4 0 6 5 11 10 11 6 0 10 -2
10 -4z m-11514 -78 c4 -7 3 -8 -4 -4 -7 4 -12 2 -12 -5 0 -7 -3 -10 -6 -6 -6
5 3 27 11 27 2 0 7 -5 11 -12z m11861 -152 c0 -8 -6 -12 -15 -9 -11 5 -11 7 0
14 7 5 13 9 14 9 0 0 1 -6 1 -14z m-13204 -70 c4 -10 1 -13 -9 -9 -15 6 -19
23 -5 23 5 0 11 -7 14 -14z m13321 -17 c-3 -5 -10 -7 -15 -3 -5 3 -7 10 -3 15
3 5 10 7 15 3 5 -3 7 -10 3 -15z m-13204 -63 c0 -3 -4 -8 -10 -11 -5 -3 -10
-1 -10 4 0 6 5 11 10 11 6 0 10 -2 10 -4z m13477 -121 c0 -8 -4 -12 -9 -9 -5
3 -6 10 -3 15 9 13 12 11 12 -6z m-13127 -99 c0 -2 -8 -10 -17 -17 -16 -13
-17 -12 -4 4 13 16 21 21 21 13z m1725 -56 c-3 -5 -12 -10 -18 -10 -7 0 -6 4
3 10 19 12 23 12 15 0z m9312 -355 c0 -8 -4 -12 -9 -9 -5 3 -6 10 -3 15 9 13
12 11 12 -6z m-8577 -155 c0 -5 -2 -10 -4 -10 -3 0 -8 5 -11 10 -3 6 -1 10 4
10 6 0 11 -4 11 -10z m11710 -40 c0 -5 -4 -10 -9 -10 -6 0 -13 5 -16 10 -3 6
1 10 9 10 9 0 16 -4 16 -10z m-3280 -38 c0 -5 -7 -9 -15 -9 -8 0 -12 4 -9 9 3
4 9 8 15 8 5 0 9 -4 9 -8z m-9886 -73 c-3 -5 -10 -7 -15 -3 -5 3 -7 10 -3 15
3 5 10 7 15 3 5 -3 7 -10 3 -15z m1691 1 c-3 -5 -12 -10 -18 -10 -7 0 -6 4 3
10 19 12 23 12 15 0z m350 -229 c3 -5 1 -12 -5 -16 -5 -3 -10 1 -10 9 0 18 6
21 15 7z m11628 -5 c4 -10 1 -13 -8 -9 -8 3 -12 9 -9 14 7 12 11 11 17 -5z
m-6263 -41 c0 -8 -4 -15 -9 -15 -13 0 -22 16 -14 24 11 11 23 6 23 -9z m-6945
-25 c3 -5 1 -10 -4 -10 -6 0 -11 5 -11 10 0 6 2 10 4 10 3 0 8 -4 11 -10z
m1699 -21 c-3 -5 -10 -7 -15 -3 -5 3 -7 10 -3 15 3 5 10 7 15 3 5 -3 7 -10 3
-15z m-2584 -35 c0 -8 -5 -12 -10 -9 -6 4 -8 11 -5 16 9 14 15 11 15 -7z m114
8 c2 -4 -4 -8 -15 -8 -10 0 -19 4 -19 8 0 4 6 8 14 8 8 0 17 -4 20 -8z m-294
-36 c0 -2 -7 -7 -16 -10 -8 -3 -12 -2 -9 4 6 10 25 14 25 6z m-70 -16 c0 -5
-5 -10 -11 -10 -5 0 -7 5 -4 10 3 6 8 10 11 10 2 0 4 -4 4 -10z m-140 -30 c0
-5 -5 -10 -11 -10 -5 0 -7 5 -4 10 3 6 8 10 11 10 2 0 4 -4 4 -10z m8015 -69
c3 -5 2 -12 -3 -15 -5 -3 -9 1 -9 9 0 17 3 19 12 6z m-8335 -11 c0 -5 -5 -10
-11 -10 -5 0 -7 5 -4 10 3 6 8 10 11 10 2 0 4 -4 4 -10z m8299 -49 c-15 -5
-22 6 -14 19 6 9 10 9 16 -1 5 -8 4 -15 -2 -18z m2296 1 c-8 -8 -25 10 -19 20
4 6 9 5 15 -3 4 -7 6 -15 4 -17z m-10821 -28 c3 -8 2 -12 -4 -9 -6 3 -10 10
-10 16 0 14 7 11 14 -7z m9719 1 c-3 -9 -8 -14 -10 -11 -3 3 -2 9 2 15 9 16
15 13 8 -4z m-9848 -35 c-3 -5 -1 -10 6 -10 7 0 10 -3 6 -6 -9 -9 -28 6 -22
17 4 5 8 9 11 9 3 0 2 -4 -1 -10z m10635 -384 c0 -2 -8 -10 -17 -17 -16 -13
-17 -12 -4 4 13 16 21 21 21 13z m5491 -41 c5 4 6 -1 2 -10 -5 -13 -7 -14 -14
-3 -5 7 -8 18 -8 23 0 6 3 4 6 -3 2 -6 9 -10 14 -7z m-11351 -45 c0 -5 -2 -10
-4 -10 -3 0 -8 5 -11 10 -3 6 -1 10 4 10 6 0 11 -4 11 -10z m3500 -34 c0 -3
-4 -8 -10 -11 -5 -3 -10 -1 -10 4 0 6 5 11 10 11 6 0 10 -2 10 -4z m-9239 -49
c-10 -9 -11 -8 -5 6 3 10 9 15 12 12 3 -3 0 -11 -7 -18z m-141 -107 c0 -5 -4
-10 -10 -10 -5 0 -10 5 -10 10 0 6 5 10 10 10 6 0 10 -4 10 -10z m-40 -34 c0
-3 -4 -8 -10 -11 -5 -3 -10 -1 -10 4 0 6 5 11 10 11 6 0 10 -2 10 -4z m6764
-354 c3 -5 -1 -9 -9 -9 -8 0 -12 4 -9 9 3 4 7 8 9 8 2 0 6 -4 9 -8z m116 -82
c0 -5 -5 -10 -11 -10 -5 0 -7 5 -4 10 3 6 8 10 11 10 2 0 4 -4 4 -10z m120
-81 c0 -5 -4 -9 -8 -9 -5 0 -9 7 -9 15 0 8 4 12 9 9 4 -3 8 -9 8 -15z m1920
-34 c0 -2 -6 -5 -13 -8 -8 -3 -14 1 -14 8 0 7 6 11 14 8 7 -3 13 -6 13 -8z
m7962 -24 c8 11 9 11 6 1 -4 -16 -22 -18 -24 -3 -2 8 -1 7 3 0 4 -8 8 -7 15 2z
m-77 -122 c-4 -5 -12 -9 -18 -8 -9 0 -8 2 1 6 6 2 9 10 6 15 -4 7 -2 8 5 4 6
-4 9 -12 6 -17z m-9345 -125 c0 -8 -5 -12 -10 -9 -6 4 -8 11 -5 16 9 14 15 11
15 -7z m120 -79 c11 -13 10 -14 -4 -9 -9 3 -16 10 -16 15 0 13 6 11 20 -6z
m985 -155 c-3 -5 -11 -10 -16 -10 -6 0 -7 5 -4 10 3 6 11 10 16 10 6 0 7 -4 4
-10z m-1710 -498 c-3 -3 -11 0 -18 7 -9 10 -8 11 6 5 10 -3 15 -9 12 -12z
m-294 -205 c-10 -9 -11 -8 -5 6 3 10 9 15 12 12 3 -3 0 -11 -7 -18z m-7809
-64 c-6 -2 -9 -10 -6 -15 4 -7 2 -8 -5 -4 -13 9 -5 26 12 25 9 0 8 -2 -1 -6z
m8618 -73 c0 -5 -7 -7 -15 -4 -8 4 -15 8 -15 10 0 2 7 4 15 4 8 0 15 -4 15
-10z m-8653 -65 c0 -8 -4 -12 -9 -9 -4 3 -8 9 -8 15 0 5 4 9 8 9 5 0 9 -7 9
-15z m9107 -256 c-3 -5 -10 -7 -15 -3 -5 3 -7 10 -3 15 3 5 10 7 15 3 5 -3 7
-10 3 -15z m-9177 -5 c-3 -3 -12 -4 -19 -1 -8 3 -5 6 6 6 11 1 17 -2 13 -5z
m16997 -179 c-4 -8 -11 -15 -16 -15 -6 0 -5 6 2 15 7 8 14 15 16 15 2 0 1 -7
-2 -15z m-17043 -38 c-6 -8 -7 -18 -3 -22 4 -5 1 -5 -6 -1 -10 6 -10 11 -1 22
6 8 14 14 16 14 3 0 0 -6 -6 -13z m17079 -18 c0 -6 -4 -7 -10 -4 -5 3 -10 11
-10 16 0 6 5 7 10 4 6 -3 10 -11 10 -16z m280 -173 c0 -2 -7 -6 -15 -10 -8 -3
-15 -1 -15 4 0 6 7 10 15 10 8 0 15 -2 15 -4z m-17397 -62 c-4 -12 -8 -13 -14
-3 -9 15 -2 32 11 24 5 -3 6 -13 3 -21z m17467 6 c0 -5 -4 -10 -10 -10 -5 0
-10 5 -10 10 0 6 5 10 10 10 6 0 10 -4 10 -10z m-9220 -56 c-6 -6 -8 -13 -5
-16 3 -3 -1 -11 -9 -17 -12 -10 -14 -9 -11 6 2 10 4 20 5 23 3 6 6 22 9 35 1
6 5 3 11 -5 5 -9 5 -19 0 -26z m-8243 20 c-3 -3 -12 -4 -19 -1 -8 3 -5 6 6 6
11 1 17 -2 13 -5z m8243 -74 c0 -5 -5 -10 -11 -10 -5 0 -7 5 -4 10 3 6 8 10
11 10 2 0 4 -4 4 -10z m2840 -650 c0 -5 -5 -10 -11 -10 -5 0 -7 5 -4 10 3 6 8
10 11 10 2 0 4 -4 4 -10z m-11099 -143 c-10 -9 -11 -8 -5 6 3 10 9 15 12 12 3
-3 0 -11 -7 -18z m8217 -252 c-3 -3 -9 2 -12 12 -6 14 -5 15 5 6 7 -7 10 -15
7 -18z m-8173 -15 c3 -5 1 -10 -4 -10 -6 0 -11 5 -11 10 0 6 2 10 4 10 3 0 8
-4 11 -10z m11795 -100 c0 -5 -7 -7 -15 -4 -8 4 -12 10 -9 15 6 11 24 2 24
-11z m115 -69 c-9 -8 -36 -10 -30 -2 2 4 11 8 20 8 8 0 13 -3 10 -6z m227
-155 c7 4 8 2 4 -5 -9 -13 -26 -5 -25 12 0 9 2 8 6 -1 2 -6 10 -9 15 -6z
m-4039 -47 c4 -3 2 -11 -6 -18 -12 -9 -14 -7 -14 14 0 14 2 22 6 18 3 -4 10
-10 14 -14z m10002 11 c-3 -5 -11 -10 -16 -10 -6 0 -7 5 -4 10 3 6 11 10 16
10 6 0 7 -4 4 -10z m-4992 -624 c4 -10 1 -13 -8 -9 -8 3 -12 9 -9 14 7 12 11
11 17 -5z m-12783 -32 c0 -8 -19 -13 -24 -6 -3 5 1 9 9 9 8 0 15 -2 15 -3z
m13240 -284 c0 -5 -2 -10 -4 -10 -3 0 -8 5 -11 10 -3 6 -1 10 4 10 6 0 11 -4
11 -10z m-12975 -230 c-3 -5 -12 -10 -18 -10 -7 0 -6 4 3 10 19 12 23 12 15 0z
m13366 -43 c-10 -9 -11 -8 -5 6 3 10 9 15 12 12 3 -3 0 -11 -7 -18z m-13300
-80 c-10 -9 -11 -8 -5 6 3 10 9 15 12 12 3 -3 0 -11 -7 -18z m13429 8 c0 -12
-19 -12 -23 0 -4 9 -1 12 9 8 7 -3 14 -7 14 -8z m3120 -29 c0 -3 -4 -8 -10
-11 -5 -3 -10 -1 -10 4 0 6 5 11 10 11 6 0 10 -2 10 -4z m-2975 -76 c3 -5 1
-10 -4 -10 -6 0 -11 5 -11 10 0 6 2 10 4 10 3 0 8 -4 11 -10z m2900 -50 c-3
-5 -10 -10 -16 -10 -5 0 -9 5 -9 10 0 6 7 10 16 10 8 0 12 -4 9 -10z m-9770
-40 c3 -5 1 -10 -4 -10 -6 0 -11 5 -11 10 0 6 2 10 4 10 3 0 8 -4 11 -10z
m-6425 -154 c0 -2 -7 -7 -16 -10 -8 -3 -12 -2 -9 4 6 10 25 14 25 6z m13997
-230 c0 -8 -6 -12 -15 -9 -11 5 -11 7 0 14 7 5 13 9 14 9 0 0 1 -6 1 -14z
m-13183 -507 c-3 -5 -10 -7 -15 -3 -5 3 -7 10 -3 15 3 5 10 7 15 3 5 -3 7 -10
3 -15z m120 -77 c3 -5 -1 -9 -9 -9 -8 0 -12 4 -9 9 3 4 7 8 9 8 2 0 6 -4 9 -8z
m15496 -46 c0 -2 -7 -7 -16 -10 -8 -3 -12 -2 -9 4 6 10 25 14 25 6z m-15226
-112 c3 -8 2 -12 -4 -9 -6 3 -10 10 -10 16 0 14 7 11 14 -7z m3901 7 c3 -5 1
-12 -5 -16 -5 -3 -10 1 -10 9 0 18 6 21 15 7z m-75 -36 c0 -8 -4 -15 -10 -15
-5 0 -7 7 -4 15 4 8 8 15 10 15 2 0 4 -7 4 -15z m-3684 -34 c-4 -5 0 -11 6
-14 7 -3 3 -4 -9 -4 -17 1 -19 4 -11 14 12 15 22 18 14 4z m3598 -17 c3 -8 2
-12 -4 -9 -6 3 -10 10 -10 16 0 14 7 11 14 -7z m10363 -69 c0 -8 -4 -12 -9 -9
-5 3 -6 10 -3 15 9 13 12 11 12 -6z m-10717 -75 c0 -5 -5 -10 -11 -10 -5 0 -7
5 -4 10 3 6 8 10 11 10 2 0 4 -4 4 -10z m-2763 -37 c-9 -2 -14 -9 -11 -15 4
-7 2 -8 -5 -4 -15 10 -4 26 17 25 15 -1 15 -2 -1 -6z m14523 -77 c0 -3 -4 -8
-10 -11 -5 -3 -10 -1 -10 4 0 6 5 11 10 11 6 0 10 -2 10 -4z m-14125 -40 c7 3
15 1 19 -4 3 -5 -5 -8 -16 -7 -12 1 -23 7 -24 14 -1 6 0 7 2 2 3 -6 11 -8 19
-5z m1625 -36 c0 -5 -5 -10 -11 -10 -5 0 -7 5 -4 10 3 6 8 10 11 10 2 0 4 -4
4 -10z m12340 -40 c0 -5 -5 -10 -11 -10 -5 0 -7 5 -4 10 3 6 8 10 11 10 2 0 4
-4 4 -10z"/>
<path d="M3650 22999 c0 -5 5 -7 10 -4 6 3 10 8 10 11 0 2 -4 4 -10 4 -5 0
-10 -5 -10 -11z"/>
<path d="M4317 22763 c3 -7 9 -10 14 -7 14 8 11 21 -5 21 -8 0 -12 -6 -9 -14z"/>
<path d="M4547 22617 c-3 -8 1 -14 9 -14 16 0 19 13 5 21 -5 3 -11 0 -14 -7z"/>
<path d="M3290 22506 c0 -2 8 -10 18 -17 15 -13 16 -12 3 4 -13 16 -21 21 -21
13z"/>
<path d="M3220 22374 c0 -8 5 -12 10 -9 6 3 10 10 10 16 0 5 -4 9 -10 9 -5 0
-10 -7 -10 -16z"/>
<path d="M5013 22305 c0 -8 4 -12 9 -9 5 3 6 10 3 15 -9 13 -12 11 -12 -6z"/>
<path d="M5136 22227 c3 -10 9 -15 12 -12 3 3 0 11 -7 18 -10 9 -11 8 -5 -6z"/>
<path d="M5636 21881 c-4 -5 -2 -12 3 -15 5 -4 12 -2 15 3 4 5 2 12 -3 15 -5
4 -12 2 -15 -3z"/>
<path d="M5986 21638 c3 -5 10 -6 15 -3 13 9 11 12 -6 12 -8 0 -12 -4 -9 -9z"/>
<path d="M6095 21560 c-3 -5 -1 -10 4 -10 6 0 11 5 11 10 0 6 -2 10 -4 10 -3
0 -8 -4 -11 -10z"/>
<path d="M1755 20831 c-3 -5 0 -13 6 -17 7 -4 9 -3 5 4 -3 5 0 13 6 15 9 4 10
6 1 6 -6 1 -14 -3 -18 -8z"/>
<path d="M7145 20830 c-3 -6 1 -7 9 -4 18 7 21 14 7 14 -6 0 -13 -4 -16 -10z"/>
<path d="M2056 20672 c-3 -5 1 -9 9 -9 8 0 12 4 9 9 -3 4 -7 8 -9 8 -2 0 -6
-4 -9 -8z"/>
<path d="M1130 20523 c0 -4 5 -15 10 -23 8 -13 10 -13 10 2 0 9 -4 20 -10 23
-5 3 -10 3 -10 -2z"/>
<path d="M1200 20080 c0 -5 5 -10 11 -10 5 0 7 5 4 10 -3 6 -8 10 -11 10 -2 0
-4 -4 -4 -10z"/>
<path d="M6567 19689 c7 -7 15 -10 18 -7 3 3 -2 9 -12 12 -14 6 -15 5 -6 -5z"/>
<path d="M1946 19534 c-5 -14 -4 -15 9 -4 17 14 19 20 6 20 -5 0 -12 -7 -15
-16z"/>
<path d="M6410 19459 c0 -5 5 -7 10 -4 6 3 10 8 10 11 0 2 -4 4 -10 4 -5 0
-10 -5 -10 -11z"/>
<path d="M2173 19383 c0 -7 4 -13 8 -13 4 0 9 6 12 13 3 8 0 14 -7 14 -7 0
-13 -6 -13 -14z"/>
<path d="M6330 19339 c0 -5 5 -7 10 -4 6 3 10 8 10 11 0 2 -4 4 -10 4 -5 0
-10 -5 -10 -11z"/>
<path d="M2290 19305 c0 -8 2 -15 4 -15 2 0 6 7 10 15 3 8 1 15 -4 15 -6 0
-10 -7 -10 -15z"/>
<path d="M2403 19225 c0 -8 4 -12 9 -9 5 3 6 10 3 15 -9 13 -12 11 -12 -6z"/>
<path d="M5987 18853 c-13 -12 -7 -23 11 -22 10 0 12 3 4 6 -6 2 -10 9 -6 14
6 10 0 12 -9 2z"/>
<path d="M5905 18731 c-6 -11 13 -26 22 -17 4 3 0 6 -8 6 -11 0 -11 2 1 10 9
6 10 10 3 10 -6 0 -14 -4 -18 -9z"/>
<path d="M5827 18609 c7 -7 15 -10 18 -7 3 3 -2 9 -12 12 -14 6 -15 5 -6 -5z"/>
<path d="M5590 18239 c0 -15 18 -19 23 -6 3 8 -1 14 -9 14 -8 0 -14 -4 -14 -8z"/>
<path d="M4224 17983 c10 -11 37 -12 30 -2 -3 5 -12 9 -21 9 -9 0 -13 -3 -9
-7z"/>
<path d="M6680 17501 c0 -6 4 -12 8 -15 5 -3 9 1 9 9 0 8 -4 15 -9 15 -4 0 -8
-4 -8 -9z"/>
<path d="M6800 17421 c0 -6 4 -12 8 -15 5 -3 9 1 9 9 0 8 -4 15 -9 15 -4 0 -8
-4 -8 -9z"/>
<path d="M5816 16911 c-4 -5 -2 -12 3 -15 5 -4 12 -2 15 3 4 5 2 12 -3 15 -5
4 -12 2 -15 -3z"/>
<path d="M5935 16831 c-3 -5 -2 -12 3 -15 5 -3 9 1 9 9 0 17 -3 19 -12 6z"/>
<path d="M7885 16680 c-3 -6 1 -7 9 -4 18 7 21 14 7 14 -6 0 -13 -4 -16 -10z"/>
<path d="M6555 16400 c3 -5 8 -10 11 -10 2 0 4 5 4 10 0 6 -5 10 -11 10 -5 0
-7 -4 -4 -10z"/>
<path d="M8346 16382 c-3 -5 1 -9 9 -9 8 0 12 4 9 9 -3 4 -7 8 -9 8 -2 0 -6
-4 -9 -8z"/>
<path d="M6784 16249 c-4 -7 -3 -9 4 -5 5 3 13 0 15 -6 4 -9 6 -10 6 -1 1 17
-16 25 -25 12z"/>
<path d="M7027 16103 c-4 -3 -7 -11 -7 -17 0 -6 5 -5 12 2 6 6 9 14 7 17 -3 3
-9 2 -12 -2z"/>
<path d="M9240 15761 c0 -5 5 -13 10 -16 6 -3 10 -2 10 4 0 5 -4 13 -10 16 -5
3 -10 2 -10 -4z"/>
<path d="M9476 15595 c4 -8 8 -15 10 -15 2 0 4 7 4 15 0 8 -4 15 -10 15 -5 0
-7 -7 -4 -15z"/>
<path d="M20425 15600 c-3 -6 1 -7 9 -4 18 7 21 14 7 14 -6 0 -13 -4 -16 -10z"/>
<path d="M7760 15590 c-8 -5 -12 -12 -9 -15 4 -3 12 1 19 10 14 17 11 19 -10
5z"/>
<path d="M20316 15451 c-3 -5 1 -11 9 -14 9 -4 12 -1 8 9 -6 16 -10 17 -17 5z"/>
<path d="M20075 15090 c-3 -5 -1 -10 4 -10 6 0 11 5 11 10 0 6 -2 10 -4 10 -3
0 -8 -4 -11 -10z"/>
<path d="M19970 14940 c0 -5 5 -10 11 -10 5 0 7 5 4 10 -3 6 -8 10 -11 10 -2
0 -4 -4 -4 -10z"/>
<path d="M22150 14899 c0 -5 5 -7 10 -4 6 3 10 8 10 11 0 2 -4 4 -10 4 -5 0
-10 -5 -10 -11z"/>
<path d="M9080 14700 c0 -6 -6 -8 -12 -4 -10 6 -10 4 0 -7 9 -9 15 -10 23 -2
8 8 8 13 0 17 -6 4 -11 2 -11 -4z"/>
<path d="M9230 14581 c0 -6 4 -13 10 -16 6 -3 7 1 4 9 -7 18 -14 21 -14 7z"/>
<path d="M9350 14510 c-8 -5 -12 -12 -9 -15 4 -3 12 1 19 10 14 17 11 19 -10
5z"/>
<path d="M11136 14472 c-3 -5 1 -9 9 -9 8 0 12 4 9 9 -3 4 -7 8 -9 8 -2 0 -6
-4 -9 -8z"/>
<path d="M22990 14319 c0 -5 5 -7 10 -4 6 3 10 8 10 11 0 2 -4 4 -10 4 -5 0
-10 -5 -10 -11z"/>
<path d="M17423 14085 c0 -7 6 -11 14 -8 7 3 13 6 13 8 0 2 -6 5 -13 8 -8 3
-14 -1 -14 -8z"/>
<path d="M17386 14082 c-3 -5 1 -9 9 -9 8 0 15 4 15 9 0 4 -4 8 -9 8 -6 0 -12
-4 -15 -8z"/>
<path d="M23631 13894 c0 -11 3 -14 6 -6 3 7 2 16 -1 19 -3 4 -6 -2 -5 -13z"/>
<path d="M8683 13817 c0 -8 6 -14 14 -14 9 0 10 4 2 14 -6 7 -12 13 -14 13 -1
0 -2 -6 -2 -13z"/>
<path d="M8105 13620 c-3 -6 1 -7 9 -4 18 7 21 14 7 14 -6 0 -13 -4 -16 -10z"/>
<path d="M19070 13620 c0 -5 5 -10 10 -10 6 0 10 5 10 10 0 6 -4 10 -10 10 -5
0 -10 -4 -10 -10z"/>
<path d="M8026 13587 c3 -8 11 -14 19 -14 20 0 19 4 -5 17 -15 8 -18 8 -14 -3z"/>
<path d="M7870 13500 c0 -5 5 -10 11 -10 5 0 7 5 4 10 -3 6 -8 10 -11 10 -2 0
-4 -4 -4 -10z"/>
<path d="M18427 13467 c-3 -8 1 -14 9 -14 16 0 19 13 5 21 -5 3 -11 0 -14 -7z"/>
<path d="M7722 13426 c7 -8 15 -12 17 -11 5 6 -10 25 -20 25 -5 0 -4 -6 3 -14z"/>
<path d="M24322 13351 c-11 -7 -11 -9 2 -14 10 -4 16 -1 16 8 0 17 -1 17 -18
6z"/>
<path d="M12958 13223 c7 -3 16 -2 19 1 4 3 -2 6 -13 5 -11 0 -14 -3 -6 -6z"/>
<path d="M13238 13043 c7 -3 16 -2 19 1 4 3 -2 6 -13 5 -11 0 -14 -3 -6 -6z"/>
<path d="M16130 12650 c-8 -15 -8 -18 3 -14 8 3 14 11 14 19 0 20 -4 19 -17
-5z"/>
<path d="M6626 12535 c-3 -8 -1 -15 4 -15 6 0 10 7 10 15 0 8 -2 15 -4 15 -2
0 -6 -7 -10 -15z"/>
<path d="M16050 12535 c0 -8 4 -15 10 -15 5 0 7 7 4 15 -4 8 -8 15 -10 15 -2
0 -4 -7 -4 -15z"/>
<path d="M6590 12494 c0 -8 5 -12 10 -9 6 4 8 11 5 16 -9 14 -15 11 -15 -7z"/>
<path d="M14331 12304 c0 -11 3 -14 6 -6 3 7 2 16 -1 19 -3 4 -6 -2 -5 -13z"/>
<path d="M14430 12225 c0 -16 16 -20 24 -6 3 5 -1 11 -9 15 -9 3 -15 0 -15 -9z"/>
<path d="M6247 12037 c-3 -8 1 -14 8 -14 7 0 11 6 8 14 -3 7 -6 13 -8 13 -2 0
-5 -6 -8 -13z"/>
<path d="M6092 11764 c-7 -8 -8 -14 -3 -14 10 0 25 19 20 25 -2 1 -10 -3 -17
-11z"/>
<path d="M23550 11746 c0 -9 5 -16 10 -16 6 0 10 4 10 9 0 6 -4 13 -10 16 -5
3 -10 -1 -10 -9z"/>
<path d="M13506 11612 c-3 -5 1 -9 9 -9 8 0 12 4 9 9 -3 4 -7 8 -9 8 -2 0 -6
-4 -9 -8z"/>
<path d="M14310 11130 c0 -5 5 -10 10 -10 6 0 10 5 10 10 0 6 -4 10 -10 10 -5
0 -10 -4 -10 -10z"/>
<path d="M5740 10885 c-10 -12 -10 -15 2 -15 8 0 15 7 15 15 0 8 -1 15 -2 15
-2 0 -8 -7 -15 -15z"/>
<path d="M22925 10820 c3 -5 8 -10 11 -10 2 0 4 5 4 10 0 6 -5 10 -11 10 -5 0
-7 -4 -4 -10z"/>
<path d="M13816 10701 c-3 -5 1 -11 9 -14 9 -4 12 -1 8 9 -6 16 -10 17 -17 5z"/>
<path d="M15046 10623 c-6 -14 -5 -15 5 -6 7 7 10 15 7 18 -3 3 -9 -2 -12 -12z"/>
<path d="M15390 10400 c0 -5 5 -10 10 -10 6 0 10 5 10 10 0 6 -4 10 -10 10 -5
0 -10 -4 -10 -10z"/>
<path d="M13896 10287 c3 -10 9 -15 12 -12 3 3 0 11 -7 18 -10 9 -11 8 -5 -6z"/>
<path d="M23150 10252 c0 -5 7 -9 15 -9 8 0 12 4 9 9 -3 4 -9 8 -15 8 -5 0 -9
-4 -9 -8z"/>
<path d="M15623 10237 c0 -7 9 -13 19 -13 10 0 18 1 18 3 0 1 -8 7 -18 12 -13
7 -19 6 -19 -2z"/>
<path d="M23385 10090 c-3 -6 1 -7 9 -4 18 7 21 14 7 14 -6 0 -13 -4 -16 -10z"/>
<path d="M13893 9370 c-1 -11 2 -22 6 -24 3 -3 8 6 9 20 1 13 -2 24 -6 24 -4
0 -8 -9 -9 -20z"/>
<path d="M16867 9379 c7 -7 15 -10 18 -7 3 3 -2 9 -12 12 -14 6 -15 5 -6 -5z"/>
<path d="M13887 9299 c7 -7 15 -10 18 -7 3 3 -2 9 -12 12 -14 6 -15 5 -6 -5z"/>
<path d="M17100 9226 c0 -2 7 -7 16 -10 8 -3 12 -2 9 4 -6 10 -25 14 -25 6z"/>
<path d="M24005 9070 c-3 -5 1 -10 10 -10 9 0 13 5 10 10 -3 6 -8 10 -10 10
-2 0 -7 -4 -10 -10z"/>
<path d="M5663 9044 c0 -17 2 -22 7 -13 5 6 6 18 3 26 -8 19 -10 16 -10 -13z"/>
<path d="M5669 9003 c-13 -16 -12 -17 4 -4 9 7 17 15 17 17 0 8 -8 3 -21 -13z"/>
<path d="M13813 8868 c-2 -18 0 -20 7 -8 12 18 13 30 2 30 -4 0 -9 -10 -9 -22z"/>
<path d="M5699 8874 c6 -3 8 -11 5 -19 -3 -7 -1 -15 4 -19 5 -3 8 5 7 16 -1
12 -7 23 -14 24 -6 1 -7 0 -2 -2z"/>
<path d="M5730 8696 c0 -2 8 -10 18 -17 15 -13 16 -12 3 4 -13 16 -21 21 -21
13z"/>
<path d="M13735 8560 c3 -5 8 -10 11 -10 2 0 4 5 4 10 0 6 -5 10 -11 10 -5 0
-7 -4 -4 -10z"/>
<path d="M13693 8454 c0 -7 6 -10 14 -7 7 3 13 8 13 12 0 4 -6 8 -13 8 -8 0
-14 -6 -14 -13z"/>
<path d="M18646 8185 c4 -8 11 -15 16 -15 6 0 5 6 -2 15 -7 8 -14 15 -16 15
-2 0 -1 -7 2 -15z"/>
<path d="M13580 8151 c0 -6 4 -13 10 -16 6 -3 7 1 4 9 -7 18 -14 21 -14 7z"/>
<path d="M23386 8147 c3 -10 9 -15 12 -12 3 3 0 11 -7 18 -10 9 -11 8 -5 -6z"/>
<path d="M13545 8060 c3 -5 8 -10 11 -10 2 0 4 5 4 10 0 6 -5 10 -11 10 -5 0
-7 -4 -4 -10z"/>
<path d="M13506 7992 c-3 -5 1 -9 9 -9 8 0 12 4 9 9 -3 4 -7 8 -9 8 -2 0 -6
-4 -9 -8z"/>
<path d="M13465 7909 c-4 -6 -4 -13 -1 -16 3 -4 6 -1 6 6 0 7 5 9 12 5 7 -4 8
-3 4 4 -9 15 -13 15 -21 1z"/>
<path d="M23190 7870 c0 -6 7 -10 15 -10 8 0 15 2 15 4 0 2 -7 6 -15 10 -8 3
-15 1 -15 -4z"/>
<path d="M6127 7749 c7 -7 15 -10 18 -7 3 3 -2 9 -12 12 -14 6 -15 5 -6 -5z"/>
<path d="M7050 6636 c0 -9 5 -16 10 -16 6 0 10 4 10 9 0 6 -4 13 -10 16 -5 3
-10 -1 -10 -9z"/>
<path d="M12410 6596 c0 -2 7 -7 16 -10 8 -3 12 -2 9 4 -6 10 -25 14 -25 6z"/>
<path d="M22774 6572 c3 -5 0 -13 -6 -15 -9 -4 -10 -6 -1 -6 17 -1 25 16 12
25 -7 4 -9 3 -5 -4z"/>
<path d="M7133 6555 c0 -8 4 -12 9 -9 5 3 6 10 3 15 -9 13 -12 11 -12 -6z"/>
<path d="M11990 6278 c0 -4 4 -8 9 -8 6 0 12 4 15 8 3 5 -1 9 -9 9 -8 0 -15
-4 -15 -9z"/>
<path d="M7714 6169 c-4 -7 -3 -9 4 -5 5 3 13 0 15 -6 4 -9 6 -10 6 -1 1 17
-16 25 -25 12z"/>
<path d="M11796 6171 c-4 -5 -2 -12 3 -15 5 -4 12 -2 15 3 4 5 2 12 -3 15 -5
4 -12 2 -15 -3z"/>
<path d="M7871 6084 c0 -11 3 -14 6 -6 3 7 2 16 -1 19 -3 4 -6 -2 -5 -13z"/>
<path d="M11475 6020 c-3 -5 1 -13 10 -16 22 -9 29 1 11 15 -10 8 -16 9 -21 1z"/>
<path d="M21826 6022 c-3 -5 1 -9 9 -9 8 0 12 4 9 9 -3 4 -7 8 -9 8 -2 0 -6
-4 -9 -8z"/>
<path d="M8028 6003 c7 -3 16 -2 19 1 4 3 -2 6 -13 5 -11 0 -14 -3 -6 -6z"/>
<path d="M21951 5934 c0 -11 3 -14 6 -6 3 7 2 16 -1 19 -3 4 -6 -2 -5 -13z"/>
<path d="M11113 5855 c0 -8 4 -12 9 -9 5 3 6 10 3 15 -9 13 -12 11 -12 -6z"/>
<path d="M22990 5820 c0 -5 5 -10 11 -10 5 0 7 5 4 10 -3 6 -8 10 -11 10 -2 0
-4 -4 -4 -10z"/>
<path d="M8650 5780 c-9 -6 -10 -10 -3 -10 6 0 15 5 18 10 8 12 4 12 -15 0z"/>
<path d="M10830 5780 c0 -5 5 -10 10 -10 6 0 10 5 10 10 0 6 -4 10 -10 10 -5
0 -10 -4 -10 -10z"/>
<path d="M22930 5745 c-7 -9 -8 -15 -2 -15 5 0 12 7 16 15 3 8 4 15 2 15 -2 0
-9 -7 -16 -15z"/>
<path d="M10670 5740 c0 -5 7 -10 16 -10 8 0 12 5 9 10 -3 6 -10 10 -16 10 -5
0 -9 -4 -9 -10z"/>
<path d="M8790 5736 c0 -2 7 -7 16 -10 8 -3 12 -2 9 4 -6 10 -25 14 -25 6z"/>
<path d="M10515 5709 c-4 -5 -4 -13 -1 -16 3 -4 6 0 6 8 0 11 2 11 10 -1 6 -9
10 -10 10 -3 0 17 -17 25 -25 12z"/>
<path d="M22363 5665 c0 -8 7 -15 15 -15 12 0 12 3 2 15 -7 8 -13 15 -15 15
-1 0 -2 -7 -2 -15z"/>
<path d="M10246 5662 c-3 -5 1 -9 9 -9 8 0 15 4 15 9 0 4 -4 8 -9 8 -6 0 -12
-4 -15 -8z"/>
</g>
</svg>
